G04 Layer: DrillDrawingLayer*
G04 EasyEDA Pro v3.2.149, 2026-09-29 10:39:25*
G04 Gerber Generator version 0.3*
G04 Scale: 100 percent, Rotated: No, Reflected: No*
G04 Dimensions in millimeters*
G04 Leading zeros omitted, absolute positions, 4 integers and 5 decimals*
G04 Generated by one-click*
G04 Object Configs: Pad,Via,Track,Text,Image,Dimension,BoardOutline,BoardCutout,CopperFilled,SolidRegion,FPCStiffener,Line,PlaneZone,ComponentProperty,ComponentSilkscreen,TearDrop*
G04 Layer Configs: 1,2,3,4,5,6,7,8,9,10,11,13,14,56*
G04 Copper Areas: 0*
%FSLAX45Y45*%
%MOMM*%
%AMIconRect*4,1,4,0.28,-0.28,-0.28,-0.28,-0.28,0.28,0.28,0.28,0.28,-0.28,0*4,0,4,0.233333,-0.233333,0.233333,0.233333,-0.233333,0.233333,-0.233333,-0.233333,0.233333,-0.233333,0*%
%ADD10IconRect*%
%ADD11C,0.616X0.522667*%
%ADD12C,0.2032*%
%ADD13C,0.254*%
G75*


G04 Drill Drawing Start*
G54D10*
G01X1435100Y-1117600D03*
G01X1435100Y-838200D03*
G01X1435100Y-546100D03*
G54D11*
G01X1488280Y-1660342D03*
G01X1743300Y-232181D03*
G01X1938108Y-1670131D03*
G01X1938108Y-1440312D03*
G01X2031098Y-232180D03*
G01X2033104Y-1670131D03*
G01X2128100Y-1440312D03*
G01X2190101Y-232181D03*
G01X2477238Y-1587123D03*
G01X2525008Y-608208D03*
G01X2525008Y-228217D03*
G01X2529388Y-989208D03*
G01X2950077Y-1012975D03*
G01X2954585Y-1587117D03*
G04 Drill Drawing End*

G04 Text Start*
G54D12*
G01X5475446Y-234406D02*
G01X5475446Y-354548D01*
G01X5475446Y-234406D02*
G01X5521166Y-354548D01*
G01X5566886Y-234406D02*
G01X5521166Y-354548D01*
G01X5566886Y-234406D02*
G01X5566886Y-354548D01*
G01X5683218Y-274538D02*
G01X5683218Y-354548D01*
G01X5683218Y-291556D02*
G01X5671788Y-280126D01*
G01X5660358Y-274538D01*
G01X5643340Y-274538D01*
G01X5631910Y-280126D01*
G01X5620480Y-291556D01*
G01X5614638Y-308828D01*
G01X5614638Y-320258D01*
G01X5620480Y-337276D01*
G01X5631910Y-348706D01*
G01X5643340Y-354548D01*
G01X5660358Y-354548D01*
G01X5671788Y-348706D01*
G01X5683218Y-337276D01*
G01X5730970Y-274538D02*
G01X5730970Y-354548D01*
G01X5730970Y-308828D02*
G01X5736812Y-291556D01*
G01X5748242Y-280126D01*
G01X5759672Y-274538D01*
G01X5776690Y-274538D01*
G01X5824442Y-234406D02*
G01X5824442Y-354548D01*
G01X5881592Y-274538D02*
G01X5824442Y-331688D01*
G01X5847302Y-308828D02*
G01X5887434Y-354548D01*
G01X7012726Y-263108D02*
G01X7006884Y-251678D01*
G01X6995454Y-240248D01*
G01X6984024Y-234406D01*
G01X6961164Y-234406D01*
G01X6949734Y-240248D01*
G01X6938304Y-251678D01*
G01X6932716Y-263108D01*
G01X6926874Y-280126D01*
G01X6926874Y-308828D01*
G01X6932716Y-325846D01*
G01X6938304Y-337276D01*
G01X6949734Y-348706D01*
G01X6961164Y-354548D01*
G01X6984024Y-354548D01*
G01X6995454Y-348706D01*
G01X7006884Y-337276D01*
G01X7012726Y-325846D01*
G01X7089180Y-274538D02*
G01X7077750Y-280126D01*
G01X7066320Y-291556D01*
G01X7060478Y-308828D01*
G01X7060478Y-320258D01*
G01X7066320Y-337276D01*
G01X7077750Y-348706D01*
G01X7089180Y-354548D01*
G01X7106198Y-354548D01*
G01X7117628Y-348706D01*
G01X7129058Y-337276D01*
G01X7134900Y-320258D01*
G01X7134900Y-308828D01*
G01X7129058Y-291556D01*
G01X7117628Y-280126D01*
G01X7106198Y-274538D01*
G01X7089180Y-274538D01*
G01X7182652Y-274538D02*
G01X7182652Y-331688D01*
G01X7188494Y-348706D01*
G01X7199924Y-354548D01*
G01X7216942Y-354548D01*
G01X7228372Y-348706D01*
G01X7245644Y-331688D01*
G01X7245644Y-274538D02*
G01X7245644Y-354548D01*
G01X7293396Y-274538D02*
G01X7293396Y-354548D01*
G01X7293396Y-297398D02*
G01X7310668Y-280126D01*
G01X7322098Y-274538D01*
G01X7339116Y-274538D01*
G01X7350546Y-280126D01*
G01X7356388Y-297398D01*
G01X7356388Y-354548D01*
G01X7421412Y-234406D02*
G01X7421412Y-331688D01*
G01X7427000Y-348706D01*
G01X7438430Y-354548D01*
G01X7449860Y-354548D01*
G01X7404140Y-274538D02*
G01X7444272Y-274538D01*
G01X8421047Y-251678D02*
G01X8409617Y-240248D01*
G01X8392599Y-234406D01*
G01X8369739Y-234406D01*
G01X8352467Y-240248D01*
G01X8341037Y-251678D01*
G01X8341037Y-263108D01*
G01X8346879Y-274538D01*
G01X8352467Y-280126D01*
G01X8363897Y-285968D01*
G01X8398187Y-297398D01*
G01X8409617Y-302986D01*
G01X8415459Y-308828D01*
G01X8421047Y-320258D01*
G01X8421047Y-337276D01*
G01X8409617Y-348706D01*
G01X8392599Y-354548D01*
G01X8369739Y-354548D01*
G01X8352467Y-348706D01*
G01X8341037Y-337276D01*
G01X8468799Y-234406D02*
G01X8474641Y-240248D01*
G01X8480229Y-234406D01*
G01X8474641Y-228818D01*
G01X8468799Y-234406D01*
G01X8474641Y-274538D02*
G01X8474641Y-354548D01*
G01X8590973Y-274538D02*
G01X8527981Y-354548D01*
G01X8527981Y-274538D02*
G01X8590973Y-274538D01*
G01X8527981Y-354548D02*
G01X8590973Y-354548D01*
G01X8638725Y-308828D02*
G01X8707305Y-308828D01*
G01X8707305Y-297398D01*
G01X8701717Y-285968D01*
G01X8695875Y-280126D01*
G01X8684445Y-274538D01*
G01X8667427Y-274538D01*
G01X8655997Y-280126D01*
G01X8644567Y-291556D01*
G01X8638725Y-308828D01*
G01X8638725Y-320258D01*
G01X8644567Y-337276D01*
G01X8655997Y-348706D01*
G01X8667427Y-354548D01*
G01X8684445Y-354548D01*
G01X8695875Y-348706D01*
G01X8707305Y-337276D01*
G01X12121211Y-234406D02*
G01X12121211Y-354548D01*
G01X12121211Y-234406D02*
G01X12172773Y-234406D01*
G01X12189791Y-240248D01*
G01X12195633Y-245836D01*
G01X12201221Y-257266D01*
G01X12201221Y-274538D01*
G01X12195633Y-285968D01*
G01X12189791Y-291556D01*
G01X12172773Y-297398D01*
G01X12121211Y-297398D01*
G01X12248973Y-234406D02*
G01X12248973Y-354548D01*
G01X12365305Y-274538D02*
G01X12365305Y-354548D01*
G01X12365305Y-291556D02*
G01X12353875Y-280126D01*
G01X12342445Y-274538D01*
G01X12325427Y-274538D01*
G01X12313997Y-280126D01*
G01X12302567Y-291556D01*
G01X12296725Y-308828D01*
G01X12296725Y-320258D01*
G01X12302567Y-337276D01*
G01X12313997Y-348706D01*
G01X12325427Y-354548D01*
G01X12342445Y-354548D01*
G01X12353875Y-348706D01*
G01X12365305Y-337276D01*
G01X12430329Y-234406D02*
G01X12430329Y-331688D01*
G01X12435917Y-348706D01*
G01X12447347Y-354548D01*
G01X12458777Y-354548D01*
G01X12413057Y-274538D02*
G01X12453189Y-274538D01*
G01X12506529Y-308828D02*
G01X12575109Y-308828D01*
G01X12575109Y-297398D01*
G01X12569521Y-285968D01*
G01X12563679Y-280126D01*
G01X12552249Y-274538D01*
G01X12535231Y-274538D01*
G01X12523801Y-280126D01*
G01X12512371Y-291556D01*
G01X12506529Y-308828D01*
G01X12506529Y-320258D01*
G01X12512371Y-337276D01*
G01X12523801Y-348706D01*
G01X12535231Y-354548D01*
G01X12552249Y-354548D01*
G01X12563679Y-348706D01*
G01X12575109Y-337276D01*
G01X12691441Y-234406D02*
G01X12691441Y-354548D01*
G01X12691441Y-291556D02*
G01X12680011Y-280126D01*
G01X12668581Y-274538D01*
G01X12651563Y-274538D01*
G01X12640133Y-280126D01*
G01X12628703Y-291556D01*
G01X12622861Y-308828D01*
G01X12622861Y-320258D01*
G01X12628703Y-337276D01*
G01X12640133Y-348706D01*
G01X12651563Y-354548D01*
G01X12668581Y-354548D01*
G01X12680011Y-348706D01*
G01X12691441Y-337276D01*
G01X13662628Y-251678D02*
G01X13651198Y-240248D01*
G01X13634180Y-234406D01*
G01X13611320Y-234406D01*
G01X13594048Y-240248D01*
G01X13582618Y-251678D01*
G01X13582618Y-263108D01*
G01X13588460Y-274538D01*
G01X13594048Y-280126D01*
G01X13605478Y-285968D01*
G01X13639768Y-297398D01*
G01X13651198Y-302986D01*
G01X13657040Y-308828D01*
G01X13662628Y-320258D01*
G01X13662628Y-337276D01*
G01X13651198Y-348706D01*
G01X13634180Y-354548D01*
G01X13611320Y-354548D01*
G01X13594048Y-348706D01*
G01X13582618Y-337276D01*
G01X13710380Y-234406D02*
G01X13710380Y-354548D01*
G01X13710380Y-297398D02*
G01X13727652Y-280126D01*
G01X13739082Y-274538D01*
G01X13756100Y-274538D01*
G01X13767530Y-280126D01*
G01X13773372Y-297398D01*
G01X13773372Y-354548D01*
G01X13889704Y-274538D02*
G01X13889704Y-354548D01*
G01X13889704Y-291556D02*
G01X13878274Y-280126D01*
G01X13866844Y-274538D01*
G01X13849826Y-274538D01*
G01X13838396Y-280126D01*
G01X13826966Y-291556D01*
G01X13821124Y-308828D01*
G01X13821124Y-320258D01*
G01X13826966Y-337276D01*
G01X13838396Y-348706D01*
G01X13849826Y-354548D01*
G01X13866844Y-354548D01*
G01X13878274Y-348706D01*
G01X13889704Y-337276D01*
G01X13937456Y-274538D02*
G01X13937456Y-394426D01*
G01X13937456Y-291556D02*
G01X13948886Y-280126D01*
G01X13960316Y-274538D01*
G01X13977588Y-274538D01*
G01X13989018Y-280126D01*
G01X14000448Y-291556D01*
G01X14006036Y-308828D01*
G01X14006036Y-320258D01*
G01X14000448Y-337276D01*
G01X13989018Y-348706D01*
G01X13977588Y-354548D01*
G01X13960316Y-354548D01*
G01X13948886Y-348706D01*
G01X13937456Y-337276D01*
G01X14053788Y-308828D02*
G01X14122368Y-308828D01*
G01X14122368Y-297398D01*
G01X14116780Y-285968D01*
G01X14110938Y-280126D01*
G01X14099508Y-274538D01*
G01X14082490Y-274538D01*
G01X14071060Y-280126D01*
G01X14059630Y-291556D01*
G01X14053788Y-308828D01*
G01X14053788Y-320258D01*
G01X14059630Y-337276D01*
G01X14071060Y-348706D01*
G01X14082490Y-354548D01*
G01X14099508Y-354548D01*
G01X14110938Y-348706D01*
G01X14122368Y-337276D01*
G01X15013799Y-234406D02*
G01X15059519Y-354548D01*
G01X15105239Y-234406D02*
G01X15059519Y-354548D01*
G01X15152991Y-234406D02*
G01X15158833Y-240248D01*
G01X15164421Y-234406D01*
G01X15158833Y-228818D01*
G01X15152991Y-234406D01*
G01X15158833Y-274538D02*
G01X15158833Y-354548D01*
G01X15280753Y-274538D02*
G01X15280753Y-354548D01*
G01X15280753Y-291556D02*
G01X15269323Y-280126D01*
G01X15257893Y-274538D01*
G01X15240875Y-274538D01*
G01X15229445Y-280126D01*
G01X15218015Y-291556D01*
G01X15212173Y-308828D01*
G01X15212173Y-320258D01*
G01X15218015Y-337276D01*
G01X15229445Y-348706D01*
G01X15240875Y-354548D01*
G01X15257893Y-354548D01*
G01X15269323Y-348706D01*
G01X15280753Y-337276D01*
G01X15431375Y-211546D02*
G01X15328505Y-394426D01*
G01X15479127Y-234406D02*
G01X15479127Y-354548D01*
G01X15479127Y-234406D02*
G01X15530689Y-234406D01*
G01X15547707Y-240248D01*
G01X15553549Y-245836D01*
G01X15559137Y-257266D01*
G01X15559137Y-274538D01*
G01X15553549Y-285968D01*
G01X15547707Y-291556D01*
G01X15530689Y-297398D01*
G01X15479127Y-297398D01*
G01X15675469Y-274538D02*
G01X15675469Y-354548D01*
G01X15675469Y-291556D02*
G01X15664039Y-280126D01*
G01X15652609Y-274538D01*
G01X15635591Y-274538D01*
G01X15624161Y-280126D01*
G01X15612731Y-291556D01*
G01X15606889Y-308828D01*
G01X15606889Y-320258D01*
G01X15612731Y-337276D01*
G01X15624161Y-348706D01*
G01X15635591Y-354548D01*
G01X15652609Y-354548D01*
G01X15664039Y-348706D01*
G01X15675469Y-337276D01*
G01X15791801Y-234406D02*
G01X15791801Y-354548D01*
G01X15791801Y-291556D02*
G01X15780371Y-280126D01*
G01X15768941Y-274538D01*
G01X15751923Y-274538D01*
G01X15740493Y-280126D01*
G01X15729063Y-291556D01*
G01X15723221Y-308828D01*
G01X15723221Y-320258D01*
G01X15729063Y-337276D01*
G01X15740493Y-348706D01*
G01X15751923Y-354548D01*
G01X15768941Y-354548D01*
G01X15780371Y-348706D01*
G01X15791801Y-337276D01*
G01X16682978Y-234406D02*
G01X16682978Y-354548D01*
G01X16682978Y-234406D02*
G01X16734540Y-234406D01*
G01X16751558Y-240248D01*
G01X16757400Y-245836D01*
G01X16762988Y-257266D01*
G01X16762988Y-274538D01*
G01X16757400Y-285968D01*
G01X16751558Y-291556D01*
G01X16734540Y-297398D01*
G01X16682978Y-297398D01*
G01X16879320Y-274538D02*
G01X16879320Y-354548D01*
G01X16879320Y-291556D02*
G01X16867890Y-280126D01*
G01X16856460Y-274538D01*
G01X16839442Y-274538D01*
G01X16828012Y-280126D01*
G01X16816582Y-291556D01*
G01X16810740Y-308828D01*
G01X16810740Y-320258D01*
G01X16816582Y-337276D01*
G01X16828012Y-348706D01*
G01X16839442Y-354548D01*
G01X16856460Y-354548D01*
G01X16867890Y-348706D01*
G01X16879320Y-337276D01*
G01X16995652Y-234406D02*
G01X16995652Y-354548D01*
G01X16995652Y-291556D02*
G01X16984222Y-280126D01*
G01X16972792Y-274538D01*
G01X16955774Y-274538D01*
G01X16944344Y-280126D01*
G01X16932914Y-291556D01*
G01X16927072Y-308828D01*
G01X16927072Y-320258D01*
G01X16932914Y-337276D01*
G01X16944344Y-348706D01*
G01X16955774Y-354548D01*
G01X16972792Y-354548D01*
G01X16984222Y-348706D01*
G01X16995652Y-337276D01*
G01X17251430Y-251678D02*
G01X17240000Y-240248D01*
G01X17222982Y-234406D01*
G01X17200122Y-234406D01*
G01X17182850Y-240248D01*
G01X17171420Y-251678D01*
G01X17171420Y-263108D01*
G01X17177262Y-274538D01*
G01X17182850Y-280126D01*
G01X17194280Y-285968D01*
G01X17228570Y-297398D01*
G01X17240000Y-302986D01*
G01X17245842Y-308828D01*
G01X17251430Y-320258D01*
G01X17251430Y-337276D01*
G01X17240000Y-348706D01*
G01X17222982Y-354548D01*
G01X17200122Y-354548D01*
G01X17182850Y-348706D01*
G01X17171420Y-337276D01*
G01X17299182Y-234406D02*
G01X17299182Y-354548D01*
G01X17299182Y-297398D02*
G01X17316454Y-280126D01*
G01X17327884Y-274538D01*
G01X17344902Y-274538D01*
G01X17356332Y-280126D01*
G01X17362174Y-297398D01*
G01X17362174Y-354548D01*
G01X17478506Y-274538D02*
G01X17478506Y-354548D01*
G01X17478506Y-291556D02*
G01X17467076Y-280126D01*
G01X17455646Y-274538D01*
G01X17438628Y-274538D01*
G01X17427198Y-280126D01*
G01X17415768Y-291556D01*
G01X17409926Y-308828D01*
G01X17409926Y-320258D01*
G01X17415768Y-337276D01*
G01X17427198Y-348706D01*
G01X17438628Y-354548D01*
G01X17455646Y-354548D01*
G01X17467076Y-348706D01*
G01X17478506Y-337276D01*
G01X17526258Y-274538D02*
G01X17526258Y-394426D01*
G01X17526258Y-291556D02*
G01X17537688Y-280126D01*
G01X17549118Y-274538D01*
G01X17566390Y-274538D01*
G01X17577820Y-280126D01*
G01X17589250Y-291556D01*
G01X17594838Y-308828D01*
G01X17594838Y-320258D01*
G01X17589250Y-337276D01*
G01X17577820Y-348706D01*
G01X17566390Y-354548D01*
G01X17549118Y-354548D01*
G01X17537688Y-348706D01*
G01X17526258Y-337276D01*
G01X17642590Y-308828D02*
G01X17711170Y-308828D01*
G01X17711170Y-297398D01*
G01X17705582Y-285968D01*
G01X17699740Y-280126D01*
G01X17688310Y-274538D01*
G01X17671292Y-274538D01*
G01X17659862Y-280126D01*
G01X17648432Y-291556D01*
G01X17642590Y-308828D01*
G01X17642590Y-320258D01*
G01X17648432Y-337276D01*
G01X17659862Y-348706D01*
G01X17671292Y-354548D01*
G01X17688310Y-354548D01*
G01X17699740Y-348706D01*
G01X17711170Y-337276D01*
G01X18602347Y-234406D02*
G01X18602347Y-354548D01*
G01X18602347Y-354548D02*
G01X18670927Y-354548D01*
G01X18787259Y-274538D02*
G01X18787259Y-354548D01*
G01X18787259Y-291556D02*
G01X18775829Y-280126D01*
G01X18764399Y-274538D01*
G01X18747381Y-274538D01*
G01X18735951Y-280126D01*
G01X18724521Y-291556D01*
G01X18718679Y-308828D01*
G01X18718679Y-320258D01*
G01X18724521Y-337276D01*
G01X18735951Y-348706D01*
G01X18747381Y-354548D01*
G01X18764399Y-354548D01*
G01X18775829Y-348706D01*
G01X18787259Y-337276D01*
G01X18840853Y-274538D02*
G01X18875143Y-354548D01*
G01X18909433Y-274538D02*
G01X18875143Y-354548D01*
G01X18863713Y-377408D01*
G01X18852283Y-388838D01*
G01X18840853Y-394426D01*
G01X18835011Y-394426D01*
G01X18957185Y-308828D02*
G01X19025765Y-308828D01*
G01X19025765Y-297398D01*
G01X19020177Y-285968D01*
G01X19014335Y-280126D01*
G01X19002905Y-274538D01*
G01X18985887Y-274538D01*
G01X18974457Y-280126D01*
G01X18963027Y-291556D01*
G01X18957185Y-308828D01*
G01X18957185Y-320258D01*
G01X18963027Y-337276D01*
G01X18974457Y-348706D01*
G01X18985887Y-354548D01*
G01X19002905Y-354548D01*
G01X19014335Y-348706D01*
G01X19025765Y-337276D01*
G01X19073517Y-274538D02*
G01X19073517Y-354548D01*
G01X19073517Y-308828D02*
G01X19079359Y-291556D01*
G01X19090789Y-280126D01*
G01X19102219Y-274538D01*
G01X19119237Y-274538D01*
G01X19295005Y-234406D02*
G01X19295005Y-354548D01*
G01X19295005Y-234406D02*
G01X19346567Y-234406D01*
G01X19363585Y-240248D01*
G01X19369427Y-245836D01*
G01X19375015Y-257266D01*
G01X19375015Y-274538D01*
G01X19369427Y-285968D01*
G01X19363585Y-291556D01*
G01X19346567Y-297398D01*
G01X19295005Y-297398D01*
G01X19491347Y-274538D02*
G01X19491347Y-354548D01*
G01X19491347Y-291556D02*
G01X19479917Y-280126D01*
G01X19468487Y-274538D01*
G01X19451469Y-274538D01*
G01X19440039Y-280126D01*
G01X19428609Y-291556D01*
G01X19422767Y-308828D01*
G01X19422767Y-320258D01*
G01X19428609Y-337276D01*
G01X19440039Y-348706D01*
G01X19451469Y-354548D01*
G01X19468487Y-354548D01*
G01X19479917Y-348706D01*
G01X19491347Y-337276D01*
G01X19539099Y-234406D02*
G01X19544941Y-240248D01*
G01X19550529Y-234406D01*
G01X19544941Y-228818D01*
G01X19539099Y-234406D01*
G01X19544941Y-274538D02*
G01X19544941Y-354548D01*
G01X19598281Y-274538D02*
G01X19598281Y-354548D01*
G01X19598281Y-308828D02*
G01X19604123Y-291556D01*
G01X19615553Y-280126D01*
G01X19626983Y-274538D01*
G01X19644001Y-274538D01*
G01X6938304Y-814977D02*
G01X7001296Y-814977D01*
G01X6967006Y-860697D01*
G01X6984024Y-860697D01*
G01X6995454Y-866539D01*
G01X7001296Y-872127D01*
G01X7006884Y-889399D01*
G01X7006884Y-900829D01*
G01X7001296Y-917847D01*
G01X6989866Y-929277D01*
G01X6972594Y-935119D01*
G01X6955576Y-935119D01*
G01X6938304Y-929277D01*
G01X6932716Y-923689D01*
G01X6926874Y-912259D01*
G01X8352467Y-814977D02*
G01X8415459Y-814977D01*
G01X8381169Y-860697D01*
G01X8398187Y-860697D01*
G01X8409617Y-866539D01*
G01X8415459Y-872127D01*
G01X8421047Y-889399D01*
G01X8421047Y-900829D01*
G01X8415459Y-917847D01*
G01X8404029Y-929277D01*
G01X8386757Y-935119D01*
G01X8369739Y-935119D01*
G01X8352467Y-929277D01*
G01X8346879Y-923689D01*
G01X8341037Y-912259D01*
G01X8537379Y-832249D02*
G01X8531791Y-820819D01*
G01X8514519Y-814977D01*
G01X8503089Y-814977D01*
G01X8486071Y-820819D01*
G01X8474641Y-837837D01*
G01X8468799Y-866539D01*
G01X8468799Y-894987D01*
G01X8474641Y-917847D01*
G01X8486071Y-929277D01*
G01X8503089Y-935119D01*
G01X8508931Y-935119D01*
G01X8525949Y-929277D01*
G01X8537379Y-917847D01*
G01X8543221Y-900829D01*
G01X8543221Y-894987D01*
G01X8537379Y-877969D01*
G01X8525949Y-866539D01*
G01X8508931Y-860697D01*
G01X8503089Y-860697D01*
G01X8486071Y-866539D01*
G01X8474641Y-877969D01*
G01X8468799Y-894987D01*
G01X8596815Y-906417D02*
G01X8590973Y-912259D01*
G01X8596815Y-917847D01*
G01X8602403Y-912259D01*
G01X8596815Y-906417D01*
G01X8684445Y-814977D02*
G01X8667427Y-820819D01*
G01X8655997Y-837837D01*
G01X8650155Y-866539D01*
G01X8650155Y-883557D01*
G01X8655997Y-912259D01*
G01X8667427Y-929277D01*
G01X8684445Y-935119D01*
G01X8695875Y-935119D01*
G01X8713147Y-929277D01*
G01X8724577Y-912259D01*
G01X8730165Y-883557D01*
G01X8730165Y-866539D01*
G01X8724577Y-837837D01*
G01X8713147Y-820819D01*
G01X8695875Y-814977D01*
G01X8684445Y-814977D01*
G01X8777917Y-855109D02*
G01X8840909Y-935119D01*
G01X8840909Y-855109D02*
G01X8777917Y-935119D01*
G01X8900091Y-814977D02*
G01X8963083Y-814977D01*
G01X8928793Y-860697D01*
G01X8945811Y-860697D01*
G01X8957241Y-866539D01*
G01X8963083Y-872127D01*
G01X8968671Y-889399D01*
G01X8968671Y-900829D01*
G01X8963083Y-917847D01*
G01X8951653Y-929277D01*
G01X8934381Y-935119D01*
G01X8917363Y-935119D01*
G01X8900091Y-929277D01*
G01X8894503Y-923689D01*
G01X8888661Y-912259D01*
G01X9085003Y-832249D02*
G01X9079415Y-820819D01*
G01X9062143Y-814977D01*
G01X9050713Y-814977D01*
G01X9033695Y-820819D01*
G01X9022265Y-837837D01*
G01X9016423Y-866539D01*
G01X9016423Y-894987D01*
G01X9022265Y-917847D01*
G01X9033695Y-929277D01*
G01X9050713Y-935119D01*
G01X9056555Y-935119D01*
G01X9073573Y-929277D01*
G01X9085003Y-917847D01*
G01X9090845Y-900829D01*
G01X9090845Y-894987D01*
G01X9085003Y-877969D01*
G01X9073573Y-866539D01*
G01X9056555Y-860697D01*
G01X9050713Y-860697D01*
G01X9033695Y-866539D01*
G01X9022265Y-877969D01*
G01X9016423Y-894987D01*
G01X9144439Y-906417D02*
G01X9138597Y-912259D01*
G01X9144439Y-917847D01*
G01X9150027Y-912259D01*
G01X9144439Y-906417D01*
G01X9232069Y-814977D02*
G01X9215051Y-820819D01*
G01X9203621Y-837837D01*
G01X9197779Y-866539D01*
G01X9197779Y-883557D01*
G01X9203621Y-912259D01*
G01X9215051Y-929277D01*
G01X9232069Y-935119D01*
G01X9243499Y-935119D01*
G01X9260771Y-929277D01*
G01X9272201Y-912259D01*
G01X9277789Y-883557D01*
G01X9277789Y-866539D01*
G01X9272201Y-837837D01*
G01X9260771Y-820819D01*
G01X9243499Y-814977D01*
G01X9232069Y-814977D01*
G01X9325541Y-855109D02*
G01X9325541Y-935119D01*
G01X9325541Y-877969D02*
G01X9342813Y-860697D01*
G01X9354243Y-855109D01*
G01X9371261Y-855109D01*
G01X9382691Y-860697D01*
G01X9388533Y-877969D01*
G01X9388533Y-935119D01*
G01X9388533Y-877969D02*
G01X9405551Y-860697D01*
G01X9416981Y-855109D01*
G01X9434253Y-855109D01*
G01X9445683Y-860697D01*
G01X9451271Y-877969D01*
G01X9451271Y-935119D01*
G01X9499023Y-814977D02*
G01X9504865Y-820819D01*
G01X9510453Y-814977D01*
G01X9504865Y-809389D01*
G01X9499023Y-814977D01*
G01X9504865Y-855109D02*
G01X9504865Y-935119D01*
G01X9558205Y-814977D02*
G01X9558205Y-935119D01*
G01X9646089Y-792117D02*
G01X9634659Y-803547D01*
G01X9623229Y-820819D01*
G01X9611799Y-843679D01*
G01X9605957Y-872127D01*
G01X9605957Y-894987D01*
G01X9611799Y-923689D01*
G01X9623229Y-946549D01*
G01X9634659Y-963567D01*
G01X9646089Y-974997D01*
G01X9728131Y-814977D02*
G01X9711113Y-820819D01*
G01X9699683Y-837837D01*
G01X9693841Y-866539D01*
G01X9693841Y-883557D01*
G01X9699683Y-912259D01*
G01X9711113Y-929277D01*
G01X9728131Y-935119D01*
G01X9739561Y-935119D01*
G01X9756833Y-929277D01*
G01X9768263Y-912259D01*
G01X9773851Y-883557D01*
G01X9773851Y-866539D01*
G01X9768263Y-837837D01*
G01X9756833Y-820819D01*
G01X9739561Y-814977D01*
G01X9728131Y-814977D01*
G01X9827445Y-906417D02*
G01X9821603Y-912259D01*
G01X9827445Y-917847D01*
G01X9833033Y-912259D01*
G01X9827445Y-906417D01*
G01X9955207Y-855109D02*
G01X9949365Y-872127D01*
G01X9937935Y-883557D01*
G01X9920917Y-889399D01*
G01X9915075Y-889399D01*
G01X9898057Y-883557D01*
G01X9886627Y-872127D01*
G01X9880785Y-855109D01*
G01X9880785Y-849267D01*
G01X9886627Y-832249D01*
G01X9898057Y-820819D01*
G01X9915075Y-814977D01*
G01X9920917Y-814977D01*
G01X9937935Y-820819D01*
G01X9949365Y-832249D01*
G01X9955207Y-855109D01*
G01X9955207Y-883557D01*
G01X9949365Y-912259D01*
G01X9937935Y-929277D01*
G01X9920917Y-935119D01*
G01X9909487Y-935119D01*
G01X9892215Y-929277D01*
G01X9886627Y-917847D01*
G01X10002959Y-837837D02*
G01X10014389Y-832249D01*
G01X10031661Y-814977D01*
G01X10031661Y-935119D01*
G01X10136563Y-814977D02*
G01X10079413Y-894987D01*
G01X10165265Y-894987D01*
G01X10136563Y-814977D02*
G01X10136563Y-935119D01*
G01X10213017Y-855109D02*
G01X10276009Y-935119D01*
G01X10276009Y-855109D02*
G01X10213017Y-935119D01*
G01X10358051Y-814977D02*
G01X10341033Y-820819D01*
G01X10329603Y-837837D01*
G01X10323761Y-866539D01*
G01X10323761Y-883557D01*
G01X10329603Y-912259D01*
G01X10341033Y-929277D01*
G01X10358051Y-935119D01*
G01X10369481Y-935119D01*
G01X10386753Y-929277D01*
G01X10398183Y-912259D01*
G01X10403771Y-883557D01*
G01X10403771Y-866539D01*
G01X10398183Y-837837D01*
G01X10386753Y-820819D01*
G01X10369481Y-814977D01*
G01X10358051Y-814977D01*
G01X10457365Y-906417D02*
G01X10451523Y-912259D01*
G01X10457365Y-917847D01*
G01X10462953Y-912259D01*
G01X10457365Y-906417D01*
G01X10585127Y-855109D02*
G01X10579285Y-872127D01*
G01X10567855Y-883557D01*
G01X10550837Y-889399D01*
G01X10544995Y-889399D01*
G01X10527977Y-883557D01*
G01X10516547Y-872127D01*
G01X10510705Y-855109D01*
G01X10510705Y-849267D01*
G01X10516547Y-832249D01*
G01X10527977Y-820819D01*
G01X10544995Y-814977D01*
G01X10550837Y-814977D01*
G01X10567855Y-820819D01*
G01X10579285Y-832249D01*
G01X10585127Y-855109D01*
G01X10585127Y-883557D01*
G01X10579285Y-912259D01*
G01X10567855Y-929277D01*
G01X10550837Y-935119D01*
G01X10539407Y-935119D01*
G01X10522135Y-929277D01*
G01X10516547Y-917847D01*
G01X10632879Y-837837D02*
G01X10644309Y-832249D01*
G01X10661581Y-814977D01*
G01X10661581Y-935119D01*
G01X10766483Y-814977D02*
G01X10709333Y-894987D01*
G01X10795185Y-894987D01*
G01X10766483Y-814977D02*
G01X10766483Y-935119D01*
G01X10842937Y-855109D02*
G01X10842937Y-935119D01*
G01X10842937Y-877969D02*
G01X10860209Y-860697D01*
G01X10871639Y-855109D01*
G01X10888657Y-855109D01*
G01X10900087Y-860697D01*
G01X10905929Y-877969D01*
G01X10905929Y-935119D01*
G01X10905929Y-877969D02*
G01X10922947Y-860697D01*
G01X10934377Y-855109D01*
G01X10951649Y-855109D01*
G01X10963079Y-860697D01*
G01X10968667Y-877969D01*
G01X10968667Y-935119D01*
G01X11016419Y-855109D02*
G01X11016419Y-935119D01*
G01X11016419Y-877969D02*
G01X11033691Y-860697D01*
G01X11045121Y-855109D01*
G01X11062139Y-855109D01*
G01X11073569Y-860697D01*
G01X11079411Y-877969D01*
G01X11079411Y-935119D01*
G01X11079411Y-877969D02*
G01X11096429Y-860697D01*
G01X11107859Y-855109D01*
G01X11125131Y-855109D01*
G01X11136561Y-860697D01*
G01X11142149Y-877969D01*
G01X11142149Y-935119D01*
G01X11189901Y-792117D02*
G01X11201331Y-803547D01*
G01X11212761Y-820819D01*
G01X11224191Y-843679D01*
G01X11230033Y-872127D01*
G01X11230033Y-894987D01*
G01X11224191Y-923689D01*
G01X11212761Y-946549D01*
G01X11201331Y-963567D01*
G01X11189901Y-974997D01*
G01X12121211Y-814977D02*
G01X12121211Y-935119D01*
G01X12121211Y-814977D02*
G01X12172773Y-814977D01*
G01X12189791Y-820819D01*
G01X12195633Y-826407D01*
G01X12201221Y-837837D01*
G01X12201221Y-855109D01*
G01X12195633Y-866539D01*
G01X12189791Y-872127D01*
G01X12172773Y-877969D01*
G01X12121211Y-877969D01*
G01X12289105Y-814977D02*
G01X12289105Y-935119D01*
G01X12248973Y-814977D02*
G01X12328983Y-814977D01*
G01X12376735Y-814977D02*
G01X12376735Y-935119D01*
G01X12456745Y-814977D02*
G01X12456745Y-935119D01*
G01X12376735Y-872127D02*
G01X12456745Y-872127D01*
G01X13582618Y-814977D02*
G01X13582618Y-935119D01*
G01X13582618Y-814977D02*
G01X13634180Y-814977D01*
G01X13651198Y-820819D01*
G01X13657040Y-826407D01*
G01X13662628Y-837837D01*
G01X13662628Y-849267D01*
G01X13657040Y-860697D01*
G01X13651198Y-866539D01*
G01X13634180Y-872127D01*
G01X13582618Y-872127D01*
G01X13622750Y-872127D02*
G01X13662628Y-935119D01*
G01X13739082Y-855109D02*
G01X13727652Y-860697D01*
G01X13716222Y-872127D01*
G01X13710380Y-889399D01*
G01X13710380Y-900829D01*
G01X13716222Y-917847D01*
G01X13727652Y-929277D01*
G01X13739082Y-935119D01*
G01X13756100Y-935119D01*
G01X13767530Y-929277D01*
G01X13778960Y-917847D01*
G01X13784802Y-900829D01*
G01X13784802Y-889399D01*
G01X13778960Y-872127D01*
G01X13767530Y-860697D01*
G01X13756100Y-855109D01*
G01X13739082Y-855109D01*
G01X13832554Y-855109D02*
G01X13832554Y-912259D01*
G01X13838396Y-929277D01*
G01X13849826Y-935119D01*
G01X13866844Y-935119D01*
G01X13878274Y-929277D01*
G01X13895546Y-912259D01*
G01X13895546Y-855109D02*
G01X13895546Y-935119D01*
G01X13943298Y-855109D02*
G01X13943298Y-935119D01*
G01X13943298Y-877969D02*
G01X13960570Y-860697D01*
G01X13972000Y-855109D01*
G01X13989018Y-855109D01*
G01X14000448Y-860697D01*
G01X14006290Y-877969D01*
G01X14006290Y-935119D01*
G01X14122622Y-814977D02*
G01X14122622Y-935119D01*
G01X14122622Y-872127D02*
G01X14111192Y-860697D01*
G01X14099762Y-855109D01*
G01X14082744Y-855109D01*
G01X14071314Y-860697D01*
G01X14059884Y-872127D01*
G01X14054042Y-889399D01*
G01X14054042Y-900829D01*
G01X14059884Y-917847D01*
G01X14071314Y-929277D01*
G01X14082744Y-935119D01*
G01X14099762Y-935119D01*
G01X14111192Y-929277D01*
G01X14122622Y-917847D01*
G01X15013799Y-814977D02*
G01X15013799Y-935119D01*
G01X15013799Y-814977D02*
G01X15065361Y-814977D01*
G01X15082379Y-820819D01*
G01X15088221Y-826407D01*
G01X15093809Y-837837D01*
G01X15093809Y-855109D01*
G01X15088221Y-866539D01*
G01X15082379Y-872127D01*
G01X15065361Y-877969D01*
G01X15013799Y-877969D01*
G01X15210141Y-855109D02*
G01X15210141Y-935119D01*
G01X15210141Y-872127D02*
G01X15198711Y-860697D01*
G01X15187281Y-855109D01*
G01X15170263Y-855109D01*
G01X15158833Y-860697D01*
G01X15147403Y-872127D01*
G01X15141561Y-889399D01*
G01X15141561Y-900829D01*
G01X15147403Y-917847D01*
G01X15158833Y-929277D01*
G01X15170263Y-935119D01*
G01X15187281Y-935119D01*
G01X15198711Y-929277D01*
G01X15210141Y-917847D01*
G01X15326473Y-814977D02*
G01X15326473Y-935119D01*
G01X15326473Y-872127D02*
G01X15315043Y-860697D01*
G01X15303613Y-855109D01*
G01X15286595Y-855109D01*
G01X15275165Y-860697D01*
G01X15263735Y-872127D01*
G01X15257893Y-889399D01*
G01X15257893Y-900829D01*
G01X15263735Y-917847D01*
G01X15275165Y-929277D01*
G01X15286595Y-935119D01*
G01X15303613Y-935119D01*
G01X15315043Y-929277D01*
G01X15326473Y-917847D01*
G01X16682978Y-814977D02*
G01X16682978Y-935119D01*
G01X16682978Y-814977D02*
G01X16734540Y-814977D01*
G01X16751558Y-820819D01*
G01X16757400Y-826407D01*
G01X16762988Y-837837D01*
G01X16762988Y-849267D01*
G01X16757400Y-860697D01*
G01X16751558Y-866539D01*
G01X16734540Y-872127D01*
G01X16682978Y-872127D01*
G01X16723110Y-872127D02*
G01X16762988Y-935119D01*
G01X16839442Y-855109D02*
G01X16828012Y-860697D01*
G01X16816582Y-872127D01*
G01X16810740Y-889399D01*
G01X16810740Y-900829D01*
G01X16816582Y-917847D01*
G01X16828012Y-929277D01*
G01X16839442Y-935119D01*
G01X16856460Y-935119D01*
G01X16867890Y-929277D01*
G01X16879320Y-917847D01*
G01X16885162Y-900829D01*
G01X16885162Y-889399D01*
G01X16879320Y-872127D01*
G01X16867890Y-860697D01*
G01X16856460Y-855109D01*
G01X16839442Y-855109D01*
G01X16932914Y-855109D02*
G01X16932914Y-912259D01*
G01X16938756Y-929277D01*
G01X16950186Y-935119D01*
G01X16967204Y-935119D01*
G01X16978634Y-929277D01*
G01X16995906Y-912259D01*
G01X16995906Y-855109D02*
G01X16995906Y-935119D01*
G01X17043658Y-855109D02*
G01X17043658Y-935119D01*
G01X17043658Y-877969D02*
G01X17060930Y-860697D01*
G01X17072360Y-855109D01*
G01X17089378Y-855109D01*
G01X17100808Y-860697D01*
G01X17106650Y-877969D01*
G01X17106650Y-935119D01*
G01X17222982Y-814977D02*
G01X17222982Y-935119D01*
G01X17222982Y-872127D02*
G01X17211552Y-860697D01*
G01X17200122Y-855109D01*
G01X17183104Y-855109D01*
G01X17171674Y-860697D01*
G01X17160244Y-872127D01*
G01X17154402Y-889399D01*
G01X17154402Y-900829D01*
G01X17160244Y-917847D01*
G01X17171674Y-929277D01*
G01X17183104Y-935119D01*
G01X17200122Y-935119D01*
G01X17211552Y-929277D01*
G01X17222982Y-917847D01*
G01X18642479Y-814977D02*
G01X18642479Y-935119D01*
G01X18602347Y-814977D02*
G01X18682357Y-814977D01*
G01X18758811Y-855109D02*
G01X18747381Y-860697D01*
G01X18735951Y-872127D01*
G01X18730109Y-889399D01*
G01X18730109Y-900829D01*
G01X18735951Y-917847D01*
G01X18747381Y-929277D01*
G01X18758811Y-935119D01*
G01X18775829Y-935119D01*
G01X18787259Y-929277D01*
G01X18798689Y-917847D01*
G01X18804531Y-900829D01*
G01X18804531Y-889399D01*
G01X18798689Y-872127D01*
G01X18787259Y-860697D01*
G01X18775829Y-855109D01*
G01X18758811Y-855109D01*
G01X18852283Y-855109D02*
G01X18852283Y-974997D01*
G01X18852283Y-872127D02*
G01X18863713Y-860697D01*
G01X18875143Y-855109D01*
G01X18892415Y-855109D01*
G01X18903845Y-860697D01*
G01X18915275Y-872127D01*
G01X18920863Y-889399D01*
G01X18920863Y-900829D01*
G01X18915275Y-917847D01*
G01X18903845Y-929277D01*
G01X18892415Y-935119D01*
G01X18875143Y-935119D01*
G01X18863713Y-929277D01*
G01X18852283Y-917847D01*
G01X19096631Y-814977D02*
G01X19096631Y-935119D01*
G01X19096631Y-935119D02*
G01X19165211Y-935119D01*
G01X19281543Y-855109D02*
G01X19281543Y-935119D01*
G01X19281543Y-872127D02*
G01X19270113Y-860697D01*
G01X19258683Y-855109D01*
G01X19241665Y-855109D01*
G01X19230235Y-860697D01*
G01X19218805Y-872127D01*
G01X19212963Y-889399D01*
G01X19212963Y-900829D01*
G01X19218805Y-917847D01*
G01X19230235Y-929277D01*
G01X19241665Y-935119D01*
G01X19258683Y-935119D01*
G01X19270113Y-929277D01*
G01X19281543Y-917847D01*
G01X19335137Y-855109D02*
G01X19369427Y-935119D01*
G01X19403717Y-855109D02*
G01X19369427Y-935119D01*
G01X19357997Y-957979D01*
G01X19346567Y-969409D01*
G01X19335137Y-974997D01*
G01X19329295Y-974997D01*
G01X19451469Y-889399D02*
G01X19520049Y-889399D01*
G01X19520049Y-877969D01*
G01X19514461Y-866539D01*
G01X19508619Y-860697D01*
G01X19497189Y-855109D01*
G01X19480171Y-855109D01*
G01X19468741Y-860697D01*
G01X19457311Y-872127D01*
G01X19451469Y-889399D01*
G01X19451469Y-900829D01*
G01X19457311Y-917847D01*
G01X19468741Y-929277D01*
G01X19480171Y-935119D01*
G01X19497189Y-935119D01*
G01X19508619Y-929277D01*
G01X19520049Y-917847D01*
G01X19567801Y-855109D02*
G01X19567801Y-935119D01*
G01X19567801Y-889399D02*
G01X19573643Y-872127D01*
G01X19585073Y-860697D01*
G01X19596503Y-855109D01*
G01X19613521Y-855109D01*
G01X19661273Y-883557D02*
G01X19764143Y-883557D01*
G01X19811895Y-814977D02*
G01X19811895Y-935119D01*
G01X19811895Y-814977D02*
G01X19863457Y-814977D01*
G01X19880475Y-820819D01*
G01X19886317Y-826407D01*
G01X19891905Y-837837D01*
G01X19891905Y-849267D01*
G01X19886317Y-860697D01*
G01X19880475Y-866539D01*
G01X19863457Y-872127D01*
G01X19811895Y-872127D02*
G01X19863457Y-872127D01*
G01X19880475Y-877969D01*
G01X19886317Y-883557D01*
G01X19891905Y-894987D01*
G01X19891905Y-912259D01*
G01X19886317Y-923689D01*
G01X19880475Y-929277D01*
G01X19863457Y-935119D01*
G01X19811895Y-935119D01*
G01X19968359Y-855109D02*
G01X19956929Y-860697D01*
G01X19945499Y-872127D01*
G01X19939657Y-889399D01*
G01X19939657Y-900829D01*
G01X19945499Y-917847D01*
G01X19956929Y-929277D01*
G01X19968359Y-935119D01*
G01X19985377Y-935119D01*
G01X19996807Y-929277D01*
G01X20008237Y-917847D01*
G01X20014079Y-900829D01*
G01X20014079Y-889399D01*
G01X20008237Y-872127D01*
G01X19996807Y-860697D01*
G01X19985377Y-855109D01*
G01X19968359Y-855109D01*
G01X20079103Y-814977D02*
G01X20079103Y-912259D01*
G01X20084691Y-929277D01*
G01X20096121Y-935119D01*
G01X20107551Y-935119D01*
G01X20061831Y-855109D02*
G01X20101963Y-855109D01*
G01X20172575Y-814977D02*
G01X20172575Y-912259D01*
G01X20178163Y-929277D01*
G01X20189593Y-935119D01*
G01X20201023Y-935119D01*
G01X20155303Y-855109D02*
G01X20195435Y-855109D01*
G01X20277477Y-855109D02*
G01X20266047Y-860697D01*
G01X20254617Y-872127D01*
G01X20248775Y-889399D01*
G01X20248775Y-900829D01*
G01X20254617Y-917847D01*
G01X20266047Y-929277D01*
G01X20277477Y-935119D01*
G01X20294495Y-935119D01*
G01X20305925Y-929277D01*
G01X20317355Y-917847D01*
G01X20323197Y-900829D01*
G01X20323197Y-889399D01*
G01X20317355Y-872127D01*
G01X20305925Y-860697D01*
G01X20294495Y-855109D01*
G01X20277477Y-855109D01*
G01X20370949Y-855109D02*
G01X20370949Y-935119D01*
G01X20370949Y-877969D02*
G01X20388221Y-860697D01*
G01X20399651Y-855109D01*
G01X20416669Y-855109D01*
G01X20428099Y-860697D01*
G01X20433941Y-877969D01*
G01X20433941Y-935119D01*
G01X20433941Y-877969D02*
G01X20450959Y-860697D01*
G01X20462389Y-855109D01*
G01X20479661Y-855109D01*
G01X20491091Y-860697D01*
G01X20496679Y-877969D01*
G01X20496679Y-935119D01*
G01X20672447Y-814977D02*
G01X20672447Y-935119D01*
G01X20672447Y-935119D02*
G01X20741027Y-935119D01*
G01X20857359Y-855109D02*
G01X20857359Y-935119D01*
G01X20857359Y-872127D02*
G01X20845929Y-860697D01*
G01X20834499Y-855109D01*
G01X20817481Y-855109D01*
G01X20806051Y-860697D01*
G01X20794621Y-872127D01*
G01X20788779Y-889399D01*
G01X20788779Y-900829D01*
G01X20794621Y-917847D01*
G01X20806051Y-929277D01*
G01X20817481Y-935119D01*
G01X20834499Y-935119D01*
G01X20845929Y-929277D01*
G01X20857359Y-917847D01*
G01X20910953Y-855109D02*
G01X20945243Y-935119D01*
G01X20979533Y-855109D02*
G01X20945243Y-935119D01*
G01X20933813Y-957979D01*
G01X20922383Y-969409D01*
G01X20910953Y-974997D01*
G01X20905111Y-974997D01*
G01X21027285Y-889399D02*
G01X21095865Y-889399D01*
G01X21095865Y-877969D01*
G01X21090277Y-866539D01*
G01X21084435Y-860697D01*
G01X21073005Y-855109D01*
G01X21055987Y-855109D01*
G01X21044557Y-860697D01*
G01X21033127Y-872127D01*
G01X21027285Y-889399D01*
G01X21027285Y-900829D01*
G01X21033127Y-917847D01*
G01X21044557Y-929277D01*
G01X21055987Y-935119D01*
G01X21073005Y-935119D01*
G01X21084435Y-929277D01*
G01X21095865Y-917847D01*
G01X21143617Y-855109D02*
G01X21143617Y-935119D01*
G01X21143617Y-889399D02*
G01X21149459Y-872127D01*
G01X21160889Y-860697D01*
G01X21172319Y-855109D01*
G01X21189337Y-855109D01*
G01X6926874Y-1418409D02*
G01X6938304Y-1412821D01*
G01X6955576Y-1395549D01*
G01X6955576Y-1515691D01*
G01X7060478Y-1395549D02*
G01X7003328Y-1475559D01*
G01X7089180Y-1475559D01*
G01X7060478Y-1395549D02*
G01X7060478Y-1515691D01*
G01X8341037Y-1418409D02*
G01X8352467Y-1412821D01*
G01X8369739Y-1395549D01*
G01X8369739Y-1515691D01*
G01X8423333Y-1424251D02*
G01X8423333Y-1418409D01*
G01X8428921Y-1406979D01*
G01X8434763Y-1401391D01*
G01X8446193Y-1395549D01*
G01X8469053Y-1395549D01*
G01X8480483Y-1401391D01*
G01X8486071Y-1406979D01*
G01X8491913Y-1418409D01*
G01X8491913Y-1429839D01*
G01X8486071Y-1441269D01*
G01X8474641Y-1458541D01*
G01X8417491Y-1515691D01*
G01X8497501Y-1515691D01*
G01X8551095Y-1486989D02*
G01X8545253Y-1492831D01*
G01X8551095Y-1498419D01*
G01X8556683Y-1492831D01*
G01X8551095Y-1486989D01*
G01X8638725Y-1395549D02*
G01X8621707Y-1401391D01*
G01X8610277Y-1418409D01*
G01X8604435Y-1447111D01*
G01X8604435Y-1464129D01*
G01X8610277Y-1492831D01*
G01X8621707Y-1509849D01*
G01X8638725Y-1515691D01*
G01X8650155Y-1515691D01*
G01X8667427Y-1509849D01*
G01X8678857Y-1492831D01*
G01X8684445Y-1464129D01*
G01X8684445Y-1447111D01*
G01X8678857Y-1418409D01*
G01X8667427Y-1401391D01*
G01X8650155Y-1395549D01*
G01X8638725Y-1395549D01*
G01X8732197Y-1435681D02*
G01X8732197Y-1515691D01*
G01X8732197Y-1458541D02*
G01X8749469Y-1441269D01*
G01X8760899Y-1435681D01*
G01X8777917Y-1435681D01*
G01X8789347Y-1441269D01*
G01X8795189Y-1458541D01*
G01X8795189Y-1515691D01*
G01X8795189Y-1458541D02*
G01X8812207Y-1441269D01*
G01X8823637Y-1435681D01*
G01X8840909Y-1435681D01*
G01X8852339Y-1441269D01*
G01X8857927Y-1458541D01*
G01X8857927Y-1515691D01*
G01X8905679Y-1395549D02*
G01X8911521Y-1401391D01*
G01X8917109Y-1395549D01*
G01X8911521Y-1389961D01*
G01X8905679Y-1395549D01*
G01X8911521Y-1435681D02*
G01X8911521Y-1515691D01*
G01X8964861Y-1395549D02*
G01X8964861Y-1515691D01*
G01X9052745Y-1372689D02*
G01X9041315Y-1384119D01*
G01X9029885Y-1401391D01*
G01X9018455Y-1424251D01*
G01X9012613Y-1452699D01*
G01X9012613Y-1475559D01*
G01X9018455Y-1504261D01*
G01X9029885Y-1527121D01*
G01X9041315Y-1544139D01*
G01X9052745Y-1555569D01*
G01X9134787Y-1395549D02*
G01X9117769Y-1401391D01*
G01X9106339Y-1418409D01*
G01X9100497Y-1447111D01*
G01X9100497Y-1464129D01*
G01X9106339Y-1492831D01*
G01X9117769Y-1509849D01*
G01X9134787Y-1515691D01*
G01X9146217Y-1515691D01*
G01X9163489Y-1509849D01*
G01X9174919Y-1492831D01*
G01X9180507Y-1464129D01*
G01X9180507Y-1447111D01*
G01X9174919Y-1418409D01*
G01X9163489Y-1401391D01*
G01X9146217Y-1395549D01*
G01X9134787Y-1395549D01*
G01X9234101Y-1486989D02*
G01X9228259Y-1492831D01*
G01X9234101Y-1498419D01*
G01X9239689Y-1492831D01*
G01X9234101Y-1486989D01*
G01X9298871Y-1395549D02*
G01X9361863Y-1395549D01*
G01X9327573Y-1441269D01*
G01X9344591Y-1441269D01*
G01X9356021Y-1447111D01*
G01X9361863Y-1452699D01*
G01X9367451Y-1469971D01*
G01X9367451Y-1481401D01*
G01X9361863Y-1498419D01*
G01X9350433Y-1509849D01*
G01X9333161Y-1515691D01*
G01X9316143Y-1515691D01*
G01X9298871Y-1509849D01*
G01X9293283Y-1504261D01*
G01X9287441Y-1492831D01*
G01X9449493Y-1395549D02*
G01X9432475Y-1401391D01*
G01X9421045Y-1418409D01*
G01X9415203Y-1447111D01*
G01X9415203Y-1464129D01*
G01X9421045Y-1492831D01*
G01X9432475Y-1509849D01*
G01X9449493Y-1515691D01*
G01X9460923Y-1515691D01*
G01X9478195Y-1509849D01*
G01X9489625Y-1492831D01*
G01X9495213Y-1464129D01*
G01X9495213Y-1447111D01*
G01X9489625Y-1418409D01*
G01X9478195Y-1401391D01*
G01X9460923Y-1395549D01*
G01X9449493Y-1395549D01*
G01X9611545Y-1395549D02*
G01X9554395Y-1395549D01*
G01X9548807Y-1447111D01*
G01X9554395Y-1441269D01*
G01X9571667Y-1435681D01*
G01X9588685Y-1435681D01*
G01X9605957Y-1441269D01*
G01X9617387Y-1452699D01*
G01X9622975Y-1469971D01*
G01X9622975Y-1481401D01*
G01X9617387Y-1498419D01*
G01X9605957Y-1509849D01*
G01X9588685Y-1515691D01*
G01X9571667Y-1515691D01*
G01X9554395Y-1509849D01*
G01X9548807Y-1504261D01*
G01X9542965Y-1492831D01*
G01X9670727Y-1435681D02*
G01X9670727Y-1515691D01*
G01X9670727Y-1458541D02*
G01X9687999Y-1441269D01*
G01X9699429Y-1435681D01*
G01X9716447Y-1435681D01*
G01X9727877Y-1441269D01*
G01X9733719Y-1458541D01*
G01X9733719Y-1515691D01*
G01X9733719Y-1458541D02*
G01X9750737Y-1441269D01*
G01X9762167Y-1435681D01*
G01X9779439Y-1435681D01*
G01X9790869Y-1441269D01*
G01X9796457Y-1458541D01*
G01X9796457Y-1515691D01*
G01X9844209Y-1435681D02*
G01X9844209Y-1515691D01*
G01X9844209Y-1458541D02*
G01X9861481Y-1441269D01*
G01X9872911Y-1435681D01*
G01X9889929Y-1435681D01*
G01X9901359Y-1441269D01*
G01X9907201Y-1458541D01*
G01X9907201Y-1515691D01*
G01X9907201Y-1458541D02*
G01X9924219Y-1441269D01*
G01X9935649Y-1435681D01*
G01X9952921Y-1435681D01*
G01X9964351Y-1441269D01*
G01X9969939Y-1458541D01*
G01X9969939Y-1515691D01*
G01X10017691Y-1372689D02*
G01X10029121Y-1384119D01*
G01X10040551Y-1401391D01*
G01X10051981Y-1424251D01*
G01X10057823Y-1452699D01*
G01X10057823Y-1475559D01*
G01X10051981Y-1504261D01*
G01X10040551Y-1527121D01*
G01X10029121Y-1544139D01*
G01X10017691Y-1555569D01*
G01X12121211Y-1395549D02*
G01X12121211Y-1515691D01*
G01X12121211Y-1395549D02*
G01X12172773Y-1395549D01*
G01X12189791Y-1401391D01*
G01X12195633Y-1406979D01*
G01X12201221Y-1418409D01*
G01X12201221Y-1435681D01*
G01X12195633Y-1447111D01*
G01X12189791Y-1452699D01*
G01X12172773Y-1458541D01*
G01X12121211Y-1458541D01*
G01X12289105Y-1395549D02*
G01X12289105Y-1515691D01*
G01X12248973Y-1395549D02*
G01X12328983Y-1395549D01*
G01X12376735Y-1395549D02*
G01X12376735Y-1515691D01*
G01X12456745Y-1395549D02*
G01X12456745Y-1515691D01*
G01X12376735Y-1452699D02*
G01X12456745Y-1452699D01*
G01X13582618Y-1395549D02*
G01X13582618Y-1515691D01*
G01X13582618Y-1395549D02*
G01X13634180Y-1395549D01*
G01X13651198Y-1401391D01*
G01X13657040Y-1406979D01*
G01X13662628Y-1418409D01*
G01X13662628Y-1429839D01*
G01X13657040Y-1441269D01*
G01X13651198Y-1447111D01*
G01X13634180Y-1452699D01*
G01X13582618Y-1452699D01*
G01X13622750Y-1452699D02*
G01X13662628Y-1515691D01*
G01X13739082Y-1435681D02*
G01X13727652Y-1441269D01*
G01X13716222Y-1452699D01*
G01X13710380Y-1469971D01*
G01X13710380Y-1481401D01*
G01X13716222Y-1498419D01*
G01X13727652Y-1509849D01*
G01X13739082Y-1515691D01*
G01X13756100Y-1515691D01*
G01X13767530Y-1509849D01*
G01X13778960Y-1498419D01*
G01X13784802Y-1481401D01*
G01X13784802Y-1469971D01*
G01X13778960Y-1452699D01*
G01X13767530Y-1441269D01*
G01X13756100Y-1435681D01*
G01X13739082Y-1435681D01*
G01X13832554Y-1435681D02*
G01X13832554Y-1492831D01*
G01X13838396Y-1509849D01*
G01X13849826Y-1515691D01*
G01X13866844Y-1515691D01*
G01X13878274Y-1509849D01*
G01X13895546Y-1492831D01*
G01X13895546Y-1435681D02*
G01X13895546Y-1515691D01*
G01X13943298Y-1435681D02*
G01X13943298Y-1515691D01*
G01X13943298Y-1458541D02*
G01X13960570Y-1441269D01*
G01X13972000Y-1435681D01*
G01X13989018Y-1435681D01*
G01X14000448Y-1441269D01*
G01X14006290Y-1458541D01*
G01X14006290Y-1515691D01*
G01X14122622Y-1395549D02*
G01X14122622Y-1515691D01*
G01X14122622Y-1452699D02*
G01X14111192Y-1441269D01*
G01X14099762Y-1435681D01*
G01X14082744Y-1435681D01*
G01X14071314Y-1441269D01*
G01X14059884Y-1452699D01*
G01X14054042Y-1469971D01*
G01X14054042Y-1481401D01*
G01X14059884Y-1498419D01*
G01X14071314Y-1509849D01*
G01X14082744Y-1515691D01*
G01X14099762Y-1515691D01*
G01X14111192Y-1509849D01*
G01X14122622Y-1498419D01*
G01X15013799Y-1395549D02*
G01X15059519Y-1515691D01*
G01X15105239Y-1395549D02*
G01X15059519Y-1515691D01*
G01X15152991Y-1395549D02*
G01X15158833Y-1401391D01*
G01X15164421Y-1395549D01*
G01X15158833Y-1389961D01*
G01X15152991Y-1395549D01*
G01X15158833Y-1435681D02*
G01X15158833Y-1515691D01*
G01X15280753Y-1435681D02*
G01X15280753Y-1515691D01*
G01X15280753Y-1452699D02*
G01X15269323Y-1441269D01*
G01X15257893Y-1435681D01*
G01X15240875Y-1435681D01*
G01X15229445Y-1441269D01*
G01X15218015Y-1452699D01*
G01X15212173Y-1469971D01*
G01X15212173Y-1481401D01*
G01X15218015Y-1498419D01*
G01X15229445Y-1509849D01*
G01X15240875Y-1515691D01*
G01X15257893Y-1515691D01*
G01X15269323Y-1509849D01*
G01X15280753Y-1498419D01*
G01X18642479Y-1395549D02*
G01X18642479Y-1515691D01*
G01X18602347Y-1395549D02*
G01X18682357Y-1395549D01*
G01X18758811Y-1435681D02*
G01X18747381Y-1441269D01*
G01X18735951Y-1452699D01*
G01X18730109Y-1469971D01*
G01X18730109Y-1481401D01*
G01X18735951Y-1498419D01*
G01X18747381Y-1509849D01*
G01X18758811Y-1515691D01*
G01X18775829Y-1515691D01*
G01X18787259Y-1509849D01*
G01X18798689Y-1498419D01*
G01X18804531Y-1481401D01*
G01X18804531Y-1469971D01*
G01X18798689Y-1452699D01*
G01X18787259Y-1441269D01*
G01X18775829Y-1435681D01*
G01X18758811Y-1435681D01*
G01X18852283Y-1435681D02*
G01X18852283Y-1555569D01*
G01X18852283Y-1452699D02*
G01X18863713Y-1441269D01*
G01X18875143Y-1435681D01*
G01X18892415Y-1435681D01*
G01X18903845Y-1441269D01*
G01X18915275Y-1452699D01*
G01X18920863Y-1469971D01*
G01X18920863Y-1481401D01*
G01X18915275Y-1498419D01*
G01X18903845Y-1509849D01*
G01X18892415Y-1515691D01*
G01X18875143Y-1515691D01*
G01X18863713Y-1509849D01*
G01X18852283Y-1498419D01*
G01X19096631Y-1395549D02*
G01X19096631Y-1515691D01*
G01X19096631Y-1515691D02*
G01X19165211Y-1515691D01*
G01X19281543Y-1435681D02*
G01X19281543Y-1515691D01*
G01X19281543Y-1452699D02*
G01X19270113Y-1441269D01*
G01X19258683Y-1435681D01*
G01X19241665Y-1435681D01*
G01X19230235Y-1441269D01*
G01X19218805Y-1452699D01*
G01X19212963Y-1469971D01*
G01X19212963Y-1481401D01*
G01X19218805Y-1498419D01*
G01X19230235Y-1509849D01*
G01X19241665Y-1515691D01*
G01X19258683Y-1515691D01*
G01X19270113Y-1509849D01*
G01X19281543Y-1498419D01*
G01X19335137Y-1435681D02*
G01X19369427Y-1515691D01*
G01X19403717Y-1435681D02*
G01X19369427Y-1515691D01*
G01X19357997Y-1538551D01*
G01X19346567Y-1549981D01*
G01X19335137Y-1555569D01*
G01X19329295Y-1555569D01*
G01X19451469Y-1469971D02*
G01X19520049Y-1469971D01*
G01X19520049Y-1458541D01*
G01X19514461Y-1447111D01*
G01X19508619Y-1441269D01*
G01X19497189Y-1435681D01*
G01X19480171Y-1435681D01*
G01X19468741Y-1441269D01*
G01X19457311Y-1452699D01*
G01X19451469Y-1469971D01*
G01X19451469Y-1481401D01*
G01X19457311Y-1498419D01*
G01X19468741Y-1509849D01*
G01X19480171Y-1515691D01*
G01X19497189Y-1515691D01*
G01X19508619Y-1509849D01*
G01X19520049Y-1498419D01*
G01X19567801Y-1435681D02*
G01X19567801Y-1515691D01*
G01X19567801Y-1469971D02*
G01X19573643Y-1452699D01*
G01X19585073Y-1441269D01*
G01X19596503Y-1435681D01*
G01X19613521Y-1435681D01*
G01X19661273Y-1464129D02*
G01X19764143Y-1464129D01*
G01X19811895Y-1395549D02*
G01X19811895Y-1515691D01*
G01X19811895Y-1395549D02*
G01X19863457Y-1395549D01*
G01X19880475Y-1401391D01*
G01X19886317Y-1406979D01*
G01X19891905Y-1418409D01*
G01X19891905Y-1429839D01*
G01X19886317Y-1441269D01*
G01X19880475Y-1447111D01*
G01X19863457Y-1452699D01*
G01X19811895Y-1452699D02*
G01X19863457Y-1452699D01*
G01X19880475Y-1458541D01*
G01X19886317Y-1464129D01*
G01X19891905Y-1475559D01*
G01X19891905Y-1492831D01*
G01X19886317Y-1504261D01*
G01X19880475Y-1509849D01*
G01X19863457Y-1515691D01*
G01X19811895Y-1515691D01*
G01X19968359Y-1435681D02*
G01X19956929Y-1441269D01*
G01X19945499Y-1452699D01*
G01X19939657Y-1469971D01*
G01X19939657Y-1481401D01*
G01X19945499Y-1498419D01*
G01X19956929Y-1509849D01*
G01X19968359Y-1515691D01*
G01X19985377Y-1515691D01*
G01X19996807Y-1509849D01*
G01X20008237Y-1498419D01*
G01X20014079Y-1481401D01*
G01X20014079Y-1469971D01*
G01X20008237Y-1452699D01*
G01X19996807Y-1441269D01*
G01X19985377Y-1435681D01*
G01X19968359Y-1435681D01*
G01X20079103Y-1395549D02*
G01X20079103Y-1492831D01*
G01X20084691Y-1509849D01*
G01X20096121Y-1515691D01*
G01X20107551Y-1515691D01*
G01X20061831Y-1435681D02*
G01X20101963Y-1435681D01*
G01X20172575Y-1395549D02*
G01X20172575Y-1492831D01*
G01X20178163Y-1509849D01*
G01X20189593Y-1515691D01*
G01X20201023Y-1515691D01*
G01X20155303Y-1435681D02*
G01X20195435Y-1435681D01*
G01X20277477Y-1435681D02*
G01X20266047Y-1441269D01*
G01X20254617Y-1452699D01*
G01X20248775Y-1469971D01*
G01X20248775Y-1481401D01*
G01X20254617Y-1498419D01*
G01X20266047Y-1509849D01*
G01X20277477Y-1515691D01*
G01X20294495Y-1515691D01*
G01X20305925Y-1509849D01*
G01X20317355Y-1498419D01*
G01X20323197Y-1481401D01*
G01X20323197Y-1469971D01*
G01X20317355Y-1452699D01*
G01X20305925Y-1441269D01*
G01X20294495Y-1435681D01*
G01X20277477Y-1435681D01*
G01X20370949Y-1435681D02*
G01X20370949Y-1515691D01*
G01X20370949Y-1458541D02*
G01X20388221Y-1441269D01*
G01X20399651Y-1435681D01*
G01X20416669Y-1435681D01*
G01X20428099Y-1441269D01*
G01X20433941Y-1458541D01*
G01X20433941Y-1515691D01*
G01X20433941Y-1458541D02*
G01X20450959Y-1441269D01*
G01X20462389Y-1435681D01*
G01X20479661Y-1435681D01*
G01X20491091Y-1441269D01*
G01X20496679Y-1458541D01*
G01X20496679Y-1515691D01*
G01X20672447Y-1395549D02*
G01X20672447Y-1515691D01*
G01X20672447Y-1515691D02*
G01X20741027Y-1515691D01*
G01X20857359Y-1435681D02*
G01X20857359Y-1515691D01*
G01X20857359Y-1452699D02*
G01X20845929Y-1441269D01*
G01X20834499Y-1435681D01*
G01X20817481Y-1435681D01*
G01X20806051Y-1441269D01*
G01X20794621Y-1452699D01*
G01X20788779Y-1469971D01*
G01X20788779Y-1481401D01*
G01X20794621Y-1498419D01*
G01X20806051Y-1509849D01*
G01X20817481Y-1515691D01*
G01X20834499Y-1515691D01*
G01X20845929Y-1509849D01*
G01X20857359Y-1498419D01*
G01X20910953Y-1435681D02*
G01X20945243Y-1515691D01*
G01X20979533Y-1435681D02*
G01X20945243Y-1515691D01*
G01X20933813Y-1538551D01*
G01X20922383Y-1549981D01*
G01X20910953Y-1555569D01*
G01X20905111Y-1555569D01*
G01X21027285Y-1469971D02*
G01X21095865Y-1469971D01*
G01X21095865Y-1458541D01*
G01X21090277Y-1447111D01*
G01X21084435Y-1441269D01*
G01X21073005Y-1435681D01*
G01X21055987Y-1435681D01*
G01X21044557Y-1441269D01*
G01X21033127Y-1452699D01*
G01X21027285Y-1469971D01*
G01X21027285Y-1481401D01*
G01X21033127Y-1498419D01*
G01X21044557Y-1509849D01*
G01X21055987Y-1515691D01*
G01X21073005Y-1515691D01*
G01X21084435Y-1509849D01*
G01X21095865Y-1498419D01*
G01X21143617Y-1435681D02*
G01X21143617Y-1515691D01*
G01X21143617Y-1469971D02*
G01X21149459Y-1452699D01*
G01X21160889Y-1441269D01*
G01X21172319Y-1435681D01*
G01X21189337Y-1435681D01*

G04 Image Start*
G36*
G01X5633269Y-1622999D02*
G01X5625529Y-1623587D01*
G01X5617686Y-1623786D01*
G01X5609843Y-1623587D01*
G01X5602102Y-1622999D01*
G01X5594475Y-1622030D01*
G01X5586970Y-1620690D01*
G01X5572364Y-1616935D01*
G01X5558362Y-1611810D01*
G01X5545040Y-1605393D01*
G01X5532474Y-1597760D01*
G01X5520742Y-1588987D01*
G01X5509920Y-1579152D01*
G01X5500084Y-1568329D01*
G01X5491311Y-1556597D01*
G01X5483678Y-1544032D01*
G01X5477261Y-1530710D01*
G01X5472137Y-1516708D01*
G01X5468382Y-1502102D01*
G01X5467042Y-1494596D01*
G01X5466072Y-1486969D01*
G01X5465484Y-1479229D01*
G01X5465286Y-1471386D01*
G01X5490686Y-1471386D01*
G01X5491343Y-1484352D01*
G01X5493270Y-1496948D01*
G01X5496405Y-1509110D01*
G01X5500682Y-1520772D01*
G01X5506037Y-1531872D01*
G01X5512405Y-1542343D01*
G01X5519723Y-1552123D01*
G01X5527925Y-1561146D01*
G01X5536949Y-1569349D01*
G01X5546728Y-1576666D01*
G01X5557200Y-1583035D01*
G01X5568299Y-1588390D01*
G01X5579962Y-1592666D01*
G01X5592123Y-1595801D01*
G01X5592123Y-1595801D01*
G01X5604719Y-1597729D01*
G01X5617686Y-1598386D01*
G01X5630652Y-1597729D01*
G01X5643248Y-1595801D01*
G01X5655410Y-1592666D01*
G01X5667072Y-1588390D01*
G01X5678172Y-1583035D01*
G01X5688643Y-1576666D01*
G01X5698423Y-1569349D01*
G01X5707446Y-1561146D01*
G01X5715649Y-1552123D01*
G01X5722966Y-1542343D01*
G01X5729335Y-1531872D01*
G01X5734690Y-1520772D01*
G01X5738966Y-1509110D01*
G01X5742101Y-1496948D01*
G01X5744029Y-1484352D01*
G01X5744686Y-1471386D01*
G01X5744029Y-1458419D01*
G01X5742101Y-1445823D01*
G01X5738966Y-1433662D01*
G01X5734690Y-1421999D01*
G01X5729335Y-1410900D01*
G01X5722966Y-1400428D01*
G01X5715649Y-1390649D01*
G01X5707446Y-1381625D01*
G01X5698423Y-1373423D01*
G01X5688643Y-1366105D01*
G01X5678172Y-1359737D01*
G01X5667072Y-1354382D01*
G01X5655410Y-1350105D01*
G01X5643248Y-1346971D01*
G01X5630652Y-1345043D01*
G01X5617686Y-1344386D01*
G01X5604719Y-1345043D01*
G01X5592123Y-1346971D01*
G01X5579962Y-1350105D01*
G01X5568299Y-1354382D01*
G01X5557200Y-1359737D01*
G01X5546728Y-1366105D01*
G01X5536949Y-1373423D01*
G01X5527925Y-1381625D01*
G01X5519723Y-1390649D01*
G01X5512405Y-1400428D01*
G01X5506037Y-1410900D01*
G01X5500682Y-1421999D01*
G01X5496405Y-1433662D01*
G01X5493270Y-1445823D01*
G01X5491343Y-1458419D01*
G01X5490686Y-1471386D01*
G01X5465286Y-1471386D01*
G01X5465484Y-1463543D01*
G01X5466072Y-1455802D01*
G01X5467042Y-1448175D01*
G01X5468382Y-1440670D01*
G01X5472137Y-1426064D01*
G01X5477261Y-1412062D01*
G01X5483678Y-1398740D01*
G01X5491311Y-1386174D01*
G01X5500084Y-1374442D01*
G01X5509920Y-1363620D01*
G01X5520742Y-1353784D01*
G01X5532474Y-1345011D01*
G01X5545040Y-1337378D01*
G01X5558362Y-1330961D01*
G01X5572364Y-1325837D01*
G01X5586970Y-1322082D01*
G01X5594475Y-1320742D01*
G01X5602102Y-1319772D01*
G01X5609843Y-1319184D01*
G01X5617686Y-1318986D01*
G01X5625529Y-1319184D01*
G01X5633269Y-1319772D01*
G01X5640896Y-1320742D01*
G01X5648402Y-1322082D01*
G01X5663008Y-1325837D01*
G01X5677010Y-1330961D01*
G01X5690332Y-1337378D01*
G01X5702897Y-1345011D01*
G01X5714629Y-1353784D01*
G01X5725452Y-1363620D01*
G01X5735287Y-1374442D01*
G01X5744060Y-1386174D01*
G01X5751693Y-1398740D01*
G01X5758110Y-1412062D01*
G01X5763235Y-1426064D01*
G01X5766990Y-1440670D01*
G01X5768330Y-1448175D01*
G01X5769299Y-1455802D01*
G01X5769887Y-1463543D01*
G01X5770086Y-1471386D01*
G01X5769887Y-1479229D01*
G01X5769299Y-1486969D01*
G01X5768330Y-1494596D01*
G01X5766990Y-1502102D01*
G01X5763235Y-1516708D01*
G01X5758110Y-1530710D01*
G01X5751693Y-1544032D01*
G01X5744060Y-1556597D01*
G01X5735287Y-1568329D01*
G01X5725452Y-1579152D01*
G01X5714629Y-1588987D01*
G01X5702897Y-1597760D01*
G01X5690332Y-1605393D01*
G01X5677010Y-1611810D01*
G01X5663008Y-1616935D01*
G01X5648402Y-1620690D01*
G01X5640896Y-1622030D01*
G01X5633269Y-1622999D01*
G37*
G36*
G01X5465286Y-738414D02*
G01X5744686Y-738414D01*
G01X5744686Y-1017814D01*
G01X5465286Y-1017814D01*
G01X5465286Y-763814D01*
G01X5490686Y-763814D01*
G01X5490686Y-992414D01*
G01X5719286Y-992414D01*
G01X5719286Y-763814D01*
G01X5719286Y-763814D01*
G01X5490686Y-763814D01*
G01X5465286Y-763814D01*
G01X5465286Y-738414D01*
G37*

G04 PolygonModel Start*
G54D13*
G01X5175000Y-1754414D02*
G01X21780069Y-1754414D01*
G01X5175000Y-1173843D02*
G01X21780069Y-1173843D01*
G01X5175000Y-593271D02*
G01X21780069Y-593271D01*
G01X5175000Y-12700D02*
G01X21780069Y-12700D01*
G01X5175000Y-12700D02*
G01X5175000Y-1729014D01*
G01X6626429Y-12700D02*
G01X6626429Y-1729014D01*
G01X8040592Y-12700D02*
G01X8040592Y-1729014D01*
G01X11820765Y-12700D02*
G01X11820765Y-1729014D01*
G01X13282172Y-12700D02*
G01X13282172Y-1729014D01*
G01X14713353Y-12700D02*
G01X14713353Y-1729014D01*
G01X16382532Y-12700D02*
G01X16382532Y-1729014D01*
G01X18301901Y-12700D02*
G01X18301901Y-1729014D01*
G01X21780069Y-12700D02*
G01X21780069Y-1729014D01*

M02*

