G04 Layer: TopLayer*
G04 EasyEDA Pro v3.2.149, 2026-09-29 10:39:25*
G04 Gerber Generator version 0.3*
G04 Scale: 100 percent, Rotated: No, Reflected: No*
G04 Dimensions in millimeters*
G04 Leading zeros omitted, absolute positions, 4 integers and 5 decimals*
G04 Generated by one-click*
G04 Object Configs: Pad,Via,Track,Text,Image,Dimension,BoardOutline,BoardCutout,CopperFilled,SolidRegion,FPCStiffener,Line,PlaneZone,ComponentProperty,ComponentSilkscreen,TearDrop*
G04 Layer Configs: 1,2,3,4,5,6,7,8,9,10,11,13,14,56*
G04 Copper Areas: 19*
%FSLAX45Y45*%
%MOMM*%
%ADD10C,0.2032*%
%ADD11C,0.254*%
%ADD12C,1.524*%
%ADD13R,1.41X1.35001*%
%ADD14R,2.0X1.59301*%
%ADD15R,0.80648X0.86401*%
%ADD16R,0.532X1.07201*%
%ADD17R,3.0003X5.49999*%
%ADD18R,2.99999X5.49999*%
%ADD19C,0.61*%
%ADD20C,0.5*%
G75*


G04 Copper Start*
G36*
G01X3139186Y-48514D02*
G01X3139186Y-1302877D01*
G01X3134375Y-1292239D01*
G01X3126399Y-1283714D01*
G01X3116104Y-1278207D01*
G01X3104585Y-1276304D01*
G01X2804585Y-1276304D01*
G01X2793518Y-1278057D01*
G01X2783535Y-1283144D01*
G01X2775611Y-1291067D01*
G01X2770524Y-1301051D01*
G01X2768771Y-1312118D01*
G01X2768771Y-1862117D01*
G01X2770524Y-1873184D01*
G01X2775611Y-1883168D01*
G01X2783535Y-1891091D01*
G01X2793518Y-1896178D01*
G01X2804585Y-1897931D01*
G01X3104585Y-1897931D01*
G01X3116104Y-1896028D01*
G01X3126399Y-1890521D01*
G01X3134375Y-1881996D01*
G01X3139186Y-1871358D01*
G01X3139186Y-1932686D01*
G01X1293114Y-1932686D01*
G01X1293114Y-1862117D01*
G01X2303723Y-1862117D01*
G01X2305476Y-1873184D01*
G01X2310563Y-1883168D01*
G01X2318486Y-1891091D01*
G01X2328470Y-1896178D01*
G01X2339537Y-1897931D01*
G01X2639536Y-1897931D01*
G01X2650603Y-1896178D01*
G01X2660587Y-1891091D01*
G01X2668510Y-1883168D01*
G01X2673597Y-1873184D01*
G01X2675350Y-1862117D01*
G01X2675350Y-1312118D01*
G01X2673597Y-1301051D01*
G01X2668510Y-1291067D01*
G01X2660587Y-1283144D01*
G01X2650603Y-1278057D01*
G01X2639536Y-1276304D01*
G01X2339537Y-1276304D01*
G01X2328470Y-1278057D01*
G01X2318486Y-1283144D01*
G01X2310563Y-1291067D01*
G01X2305476Y-1301051D01*
G01X2303723Y-1312118D01*
G01X2303723Y-1862117D01*
G01X2303723Y-1862117D01*
G01X1293114Y-1862117D01*
G01X1293114Y-1592841D01*
G01X1381966Y-1592841D01*
G01X1381966Y-1727842D01*
G01X1383719Y-1738910D01*
G01X1388806Y-1748893D01*
G01X1396729Y-1756817D01*
G01X1406713Y-1761904D01*
G01X1417780Y-1763656D01*
G01X1558780Y-1763656D01*
G01X1570135Y-1761809D01*
G01X1580319Y-1756456D01*
G01X1588280Y-1748150D01*
G01X1596241Y-1756456D01*
G01X1606424Y-1761809D01*
G01X1617779Y-1763656D01*
G01X1758780Y-1763656D01*
G01X1769847Y-1761904D01*
G01X1779831Y-1756817D01*
G01X1787754Y-1748893D01*
G01X1792841Y-1738910D01*
G01X1794594Y-1727842D01*
G01X1794594Y-1616531D01*
G01X1875693Y-1616531D01*
G01X1875693Y-1723731D01*
G01X1877446Y-1734799D01*
G01X1882533Y-1744782D01*
G01X1890457Y-1752706D01*
G01X1900440Y-1757793D01*
G01X1911507Y-1759545D01*
G01X1964708Y-1759545D01*
G01X1975685Y-1757822D01*
G01X1985606Y-1752816D01*
G01X1995526Y-1757822D01*
G01X2006503Y-1759545D01*
G01X2059704Y-1759545D01*
G01X2070681Y-1757822D01*
G01X2080602Y-1752816D01*
G01X2090522Y-1757822D01*
G01X2101499Y-1759545D01*
G01X2101499Y-1759545D01*
G01X2154700Y-1759545D01*
G01X2165767Y-1757793D01*
G01X2175751Y-1752706D01*
G01X2183674Y-1744782D01*
G01X2188761Y-1734799D01*
G01X2190514Y-1723731D01*
G01X2190514Y-1616531D01*
G01X2188761Y-1605464D01*
G01X2183674Y-1595480D01*
G01X2175751Y-1587557D01*
G01X2165767Y-1582470D01*
G01X2154700Y-1580717D01*
G01X2101499Y-1580717D01*
G01X2090522Y-1582440D01*
G01X2080602Y-1587446D01*
G01X2070681Y-1582440D01*
G01X2059704Y-1580717D01*
G01X2006503Y-1580717D01*
G01X1995526Y-1582440D01*
G01X1985606Y-1587446D01*
G01X1975685Y-1582440D01*
G01X1964708Y-1580717D01*
G01X1911507Y-1580717D01*
G01X1900440Y-1582470D01*
G01X1890457Y-1587557D01*
G01X1882533Y-1595480D01*
G01X1877446Y-1605464D01*
G01X1875693Y-1616531D01*
G01X1794594Y-1616531D01*
G01X1794594Y-1592841D01*
G01X1792841Y-1581774D01*
G01X1787754Y-1571790D01*
G01X1779831Y-1563867D01*
G01X1769847Y-1558780D01*
G01X1758780Y-1557027D01*
G01X1617779Y-1557027D01*
G01X1606424Y-1558875D01*
G01X1596241Y-1564228D01*
G01X1588280Y-1572533D01*
G01X1580319Y-1564228D01*
G01X1570135Y-1558875D01*
G01X1558780Y-1557027D01*
G01X1558780Y-1557027D01*
G01X1417780Y-1557027D01*
G01X1406713Y-1558780D01*
G01X1396729Y-1563867D01*
G01X1388806Y-1571790D01*
G01X1383719Y-1581774D01*
G01X1381966Y-1592841D01*
G01X1293114Y-1592841D01*
G01X1293114Y-1386711D01*
G01X1875693Y-1386711D01*
G01X1875693Y-1493912D01*
G01X1877446Y-1504979D01*
G01X1882533Y-1514963D01*
G01X1890457Y-1522886D01*
G01X1900440Y-1527973D01*
G01X1911507Y-1529726D01*
G01X1964708Y-1529726D01*
G01X1975685Y-1528002D01*
G01X1985606Y-1522997D01*
G01X1995526Y-1528002D01*
G01X2006503Y-1529726D01*
G01X2006503Y-1529726D01*
G01X2059704Y-1529726D01*
G01X2070681Y-1528002D01*
G01X2080602Y-1522997D01*
G01X2090522Y-1528002D01*
G01X2101499Y-1529726D01*
G01X2154700Y-1529726D01*
G01X2165767Y-1527973D01*
G01X2175751Y-1522886D01*
G01X2183674Y-1514963D01*
G01X2188761Y-1504979D01*
G01X2190514Y-1493912D01*
G01X2190514Y-1386711D01*
G01X2188761Y-1375644D01*
G01X2183674Y-1365661D01*
G01X2175751Y-1357737D01*
G01X2165767Y-1352650D01*
G01X2154700Y-1350897D01*
G01X2101499Y-1350897D01*
G01X2090522Y-1352621D01*
G01X2080602Y-1357627D01*
G01X2070681Y-1352621D01*
G01X2059704Y-1350897D01*
G01X2006503Y-1350897D01*
G01X1995526Y-1352621D01*
G01X1985606Y-1357627D01*
G01X1975685Y-1352621D01*
G01X1964708Y-1350897D01*
G01X1911507Y-1350897D01*
G01X1900440Y-1352650D01*
G01X1890457Y-1357737D01*
G01X1882533Y-1365661D01*
G01X1877446Y-1375644D01*
G01X1875693Y-1386711D01*
G01X1293114Y-1386711D01*
G01X1293114Y-1117600D01*
G01X1323086Y-1117600D01*
G01X1324993Y-1138183D01*
G01X1330650Y-1158064D01*
G01X1339864Y-1176568D01*
G01X1352321Y-1193063D01*
G01X1367596Y-1206989D01*
G01X1385171Y-1217871D01*
G01X1404446Y-1225338D01*
G01X1424765Y-1229136D01*
G01X1445435Y-1229136D01*
G01X1465754Y-1225338D01*
G01X1485029Y-1217871D01*
G01X1502604Y-1206989D01*
G01X1517879Y-1193063D01*
G01X1530336Y-1176568D01*
G01X1539550Y-1158064D01*
G01X1545207Y-1138183D01*
G01X1547114Y-1117600D01*
G01X1545207Y-1097017D01*
G01X1539550Y-1077136D01*
G01X1530336Y-1058632D01*
G01X1517879Y-1042137D01*
G01X1502604Y-1028211D01*
G01X1485029Y-1017329D01*
G01X1465754Y-1009862D01*
G01X1445435Y-1006064D01*
G01X1424765Y-1006064D01*
G01X1404446Y-1009862D01*
G01X1385171Y-1017329D01*
G01X1367596Y-1028211D01*
G01X1352321Y-1042137D01*
G01X1339864Y-1058632D01*
G01X1330650Y-1077136D01*
G01X1324993Y-1097017D01*
G01X1323086Y-1117600D01*
G01X1323086Y-1117600D01*
G01X1293114Y-1117600D01*
G01X1293114Y-838200D01*
G01X1323086Y-838200D01*
G01X1324993Y-858783D01*
G01X1330650Y-878664D01*
G01X1339864Y-897168D01*
G01X1352321Y-913663D01*
G01X1367596Y-927589D01*
G01X1385171Y-938471D01*
G01X1404446Y-945938D01*
G01X1424765Y-949736D01*
G01X1445435Y-949736D01*
G01X1465754Y-945938D01*
G01X1485029Y-938471D01*
G01X1502604Y-927589D01*
G01X1517879Y-913663D01*
G01X1520980Y-909557D01*
G01X2388942Y-909557D01*
G01X2388942Y-1068858D01*
G01X2390695Y-1079926D01*
G01X2395782Y-1089909D01*
G01X2403705Y-1097833D01*
G01X2413689Y-1102920D01*
G01X2424756Y-1104672D01*
G01X2624756Y-1104672D01*
G01X2635823Y-1102920D01*
G01X2645807Y-1097833D01*
G01X2653730Y-1089909D01*
G01X2658817Y-1079926D01*
G01X2660570Y-1068858D01*
G01X2660570Y-909557D01*
G01X2660570Y-909557D01*
G01X2808957Y-909557D01*
G01X2808957Y-1068858D01*
G01X2810710Y-1079926D01*
G01X2815797Y-1089909D01*
G01X2823720Y-1097833D01*
G01X2833704Y-1102920D01*
G01X2844771Y-1104672D01*
G01X3044770Y-1104672D01*
G01X3055838Y-1102920D01*
G01X3065821Y-1097833D01*
G01X3073745Y-1089909D01*
G01X3078832Y-1079926D01*
G01X3080584Y-1068858D01*
G01X3080584Y-909557D01*
G01X3080584Y-909557D01*
G01X3078832Y-898490D01*
G01X3073745Y-888506D01*
G01X3065821Y-880583D01*
G01X3055838Y-875496D01*
G01X3044770Y-873743D01*
G01X2844771Y-873743D01*
G01X2833704Y-875496D01*
G01X2823720Y-880583D01*
G01X2815797Y-888506D01*
G01X2810710Y-898490D01*
G01X2808957Y-909557D01*
G01X2660570Y-909557D01*
G01X2658817Y-898490D01*
G01X2653730Y-888506D01*
G01X2645807Y-880583D01*
G01X2635823Y-875496D01*
G01X2624756Y-873743D01*
G01X2424756Y-873743D01*
G01X2413689Y-875496D01*
G01X2403705Y-880583D01*
G01X2395782Y-888506D01*
G01X2390695Y-898490D01*
G01X2388942Y-909557D01*
G01X1520980Y-909557D01*
G01X1530336Y-897168D01*
G01X1539550Y-878664D01*
G01X1545207Y-858783D01*
G01X1547114Y-838200D01*
G01X1545207Y-817617D01*
G01X1539550Y-797736D01*
G01X1530336Y-779232D01*
G01X1517879Y-762737D01*
G01X1502604Y-748811D01*
G01X1485029Y-737929D01*
G01X1465754Y-730462D01*
G01X1445435Y-726664D01*
G01X1424765Y-726664D01*
G01X1404446Y-730462D01*
G01X1385171Y-737929D01*
G01X1367596Y-748811D01*
G01X1352321Y-762737D01*
G01X1339864Y-779232D01*
G01X1330650Y-797736D01*
G01X1324993Y-817617D01*
G01X1323086Y-838200D01*
G01X1323086Y-838200D01*
G01X1293114Y-838200D01*
G01X1293114Y-546100D01*
G01X1323086Y-546100D01*
G01X1324993Y-566683D01*
G01X1330650Y-586564D01*
G01X1339864Y-605068D01*
G01X1352321Y-621563D01*
G01X1367596Y-635489D01*
G01X1385171Y-646371D01*
G01X1404446Y-653838D01*
G01X1424765Y-657636D01*
G01X1445435Y-657636D01*
G01X1465754Y-653838D01*
G01X1485029Y-646371D01*
G01X1502604Y-635489D01*
G01X1517879Y-621563D01*
G01X1530336Y-605068D01*
G01X1539550Y-586564D01*
G01X1545207Y-566683D01*
G01X1547114Y-546100D01*
G01X1546614Y-540707D01*
G01X2418693Y-540707D01*
G01X2418693Y-675708D01*
G01X2420446Y-686775D01*
G01X2425533Y-696759D01*
G01X2433456Y-704682D01*
G01X2443440Y-709769D01*
G01X2454507Y-711522D01*
G01X2595508Y-711522D01*
G01X2606863Y-709675D01*
G01X2617047Y-704322D01*
G01X2625007Y-696016D01*
G01X2632968Y-704322D01*
G01X2643152Y-709675D01*
G01X2654507Y-711522D01*
G01X2795507Y-711522D01*
G01X2806575Y-709769D01*
G01X2816558Y-704682D01*
G01X2824482Y-696759D01*
G01X2829569Y-686775D01*
G01X2831321Y-675708D01*
G01X2831321Y-540707D01*
G01X2829569Y-529640D01*
G01X2824482Y-519656D01*
G01X2816558Y-511733D01*
G01X2806575Y-506646D01*
G01X2795507Y-504893D01*
G01X2654507Y-504893D01*
G01X2643152Y-506741D01*
G01X2632968Y-512094D01*
G01X2625007Y-520399D01*
G01X2617047Y-512094D01*
G01X2606863Y-506741D01*
G01X2595508Y-504893D01*
G01X2595508Y-504893D01*
G01X2454507Y-504893D01*
G01X2443440Y-506646D01*
G01X2433456Y-511733D01*
G01X2425533Y-519656D01*
G01X2420446Y-529640D01*
G01X2418693Y-540707D01*
G01X1546614Y-540707D01*
G01X1545207Y-525517D01*
G01X1539550Y-505636D01*
G01X1530336Y-487132D01*
G01X1517879Y-470637D01*
G01X1502604Y-456711D01*
G01X1485029Y-445829D01*
G01X1465754Y-438362D01*
G01X1445435Y-434564D01*
G01X1424765Y-434564D01*
G01X1404446Y-438362D01*
G01X1385171Y-445829D01*
G01X1367596Y-456711D01*
G01X1352321Y-470637D01*
G01X1339864Y-487132D01*
G01X1330650Y-505636D01*
G01X1324993Y-525517D01*
G01X1323086Y-546100D01*
G01X1323086Y-546100D01*
G01X1293114Y-546100D01*
G01X1293114Y-188981D01*
G01X1516489Y-188981D01*
G01X1516489Y-275381D01*
G01X1518242Y-286449D01*
G01X1523329Y-296432D01*
G01X1531252Y-304356D01*
G01X1541236Y-309443D01*
G01X1552303Y-311195D01*
G01X1632951Y-311195D01*
G01X1642565Y-309881D01*
G01X1651473Y-306034D01*
G01X1659021Y-299937D01*
G01X1664656Y-292037D01*
G01X1667963Y-282915D01*
G01X1671271Y-292037D01*
G01X1676906Y-299937D01*
G01X1684454Y-306034D01*
G01X1693362Y-309881D01*
G01X1702976Y-311195D01*
G01X1783624Y-311195D01*
G01X1794691Y-309443D01*
G01X1804675Y-304356D01*
G01X1812598Y-296432D01*
G01X1817685Y-286449D01*
G01X1819438Y-275381D01*
G01X1819438Y-188981D01*
G01X1819438Y-188981D01*
G01X1959125Y-188981D01*
G01X1959125Y-275381D01*
G01X1960878Y-286449D01*
G01X1965965Y-296432D01*
G01X1973888Y-304356D01*
G01X1983872Y-309443D01*
G01X1994939Y-311195D01*
G01X2075586Y-311195D01*
G01X2085200Y-309881D01*
G01X2094108Y-306034D01*
G01X2101657Y-299937D01*
G01X2107292Y-292037D01*
G01X2110599Y-282915D01*
G01X2113906Y-292037D01*
G01X2119541Y-299937D01*
G01X2127090Y-306034D01*
G01X2135998Y-309881D01*
G01X2145612Y-311195D01*
G01X2226259Y-311195D01*
G01X2237326Y-309443D01*
G01X2247310Y-304356D01*
G01X2255233Y-296432D01*
G01X2260320Y-286449D01*
G01X2262073Y-275381D01*
G01X2262073Y-188981D01*
G01X2260320Y-177914D01*
G01X2255233Y-167930D01*
G01X2248020Y-160717D01*
G01X2418693Y-160717D01*
G01X2418693Y-295718D01*
G01X2420446Y-306785D01*
G01X2425533Y-316769D01*
G01X2433456Y-324692D01*
G01X2443440Y-329779D01*
G01X2454507Y-331532D01*
G01X2595508Y-331532D01*
G01X2606863Y-329684D01*
G01X2617047Y-324331D01*
G01X2625007Y-316026D01*
G01X2632968Y-324331D01*
G01X2643152Y-329684D01*
G01X2654507Y-331532D01*
G01X2795507Y-331532D01*
G01X2806575Y-329779D01*
G01X2816558Y-324692D01*
G01X2824482Y-316769D01*
G01X2829569Y-306785D01*
G01X2831321Y-295718D01*
G01X2831321Y-160717D01*
G01X2829569Y-149650D01*
G01X2824482Y-139666D01*
G01X2816558Y-131743D01*
G01X2806575Y-126656D01*
G01X2795507Y-124903D01*
G01X2654507Y-124903D01*
G01X2643152Y-126751D01*
G01X2632968Y-132104D01*
G01X2625007Y-140409D01*
G01X2617047Y-132104D01*
G01X2606863Y-126751D01*
G01X2595508Y-124903D01*
G01X2595508Y-124903D01*
G01X2454507Y-124903D01*
G01X2443440Y-126656D01*
G01X2433456Y-131743D01*
G01X2425533Y-139666D01*
G01X2420446Y-149650D01*
G01X2418693Y-160717D01*
G01X2248020Y-160717D01*
G01X2247310Y-160007D01*
G01X2237326Y-154920D01*
G01X2226259Y-153167D01*
G01X2145612Y-153167D01*
G01X2135998Y-154481D01*
G01X2127090Y-158328D01*
G01X2119541Y-164425D01*
G01X2113906Y-172325D01*
G01X2110599Y-181447D01*
G01X2107292Y-172325D01*
G01X2101657Y-164425D01*
G01X2094108Y-158328D01*
G01X2085200Y-154481D01*
G01X2075586Y-153167D01*
G01X2075586Y-153167D01*
G01X1994939Y-153167D01*
G01X1983872Y-154920D01*
G01X1973888Y-160007D01*
G01X1965965Y-167930D01*
G01X1960878Y-177914D01*
G01X1959125Y-188981D01*
G01X1819438Y-188981D01*
G01X1817685Y-177914D01*
G01X1812598Y-167930D01*
G01X1804675Y-160007D01*
G01X1794691Y-154920D01*
G01X1783624Y-153167D01*
G01X1702976Y-153167D01*
G01X1693362Y-154481D01*
G01X1684454Y-158328D01*
G01X1676906Y-164425D01*
G01X1671271Y-172325D01*
G01X1667963Y-181447D01*
G01X1664656Y-172325D01*
G01X1659021Y-164425D01*
G01X1651473Y-158328D01*
G01X1642565Y-154481D01*
G01X1632951Y-153167D01*
G01X1632951Y-153167D01*
G01X1552303Y-153167D01*
G01X1541236Y-154920D01*
G01X1531252Y-160007D01*
G01X1523329Y-167930D01*
G01X1518242Y-177914D01*
G01X1516489Y-188981D01*
G01X1293114Y-188981D01*
G01X1293114Y-48514D01*
G01X3139186Y-48514D01*
G37*
G54D10*
G01X3139186Y-48514D02*
G01X3139186Y-1302877D01*
G03X3104585Y-1276304I-34601J-9241D01*
G01X2804585Y-1276304D01*
G03X2768771Y-1312118I0J-35814D01*
G01X2768771Y-1862117D01*
G03X2804585Y-1897931I35814J0D01*
G01X3104585Y-1897931D01*
G03X3139186Y-1871358I0J35814D01*
G01X3139186Y-1932686D01*
G01X1293114Y-1932686D01*
G01X1293114Y-48514D01*
G01X3139186Y-48514D01*
G01X1323086Y-1117600D02*
G03X1547114Y-1117600I112014J0D01*
G03X1323086Y-1117600I-112014J0D01*
G01X1323086Y-838200D02*
G03X1547114Y-838200I112014J0D01*
G03X1323086Y-838200I-112014J0D01*
G01X1323086Y-546100D02*
G03X1547114Y-546100I112014J0D01*
G03X1323086Y-546100I-112014J0D01*
G01X1558780Y-1557027D02*
G01X1417780Y-1557027D01*
G03X1381966Y-1592841I0J-35814D01*
G01X1381966Y-1727842D01*
G03X1417780Y-1763656I35814J0D01*
G01X1558780Y-1763656D01*
G03X1588280Y-1748150I0J35814D01*
G03X1617779Y-1763656I29500J20308D01*
G01X1758780Y-1763656D01*
G03X1794594Y-1727842I0J35814D01*
G01X1794594Y-1592841D01*
G03X1758780Y-1557027I-35814J0D01*
G01X1617779Y-1557027D01*
G03X1588280Y-1572533I0J-35814D01*
G03X1558780Y-1557027I-29500J-20308D01*
G01X1632951Y-153167D02*
G01X1552303Y-153167D01*
G03X1516489Y-188981I0J-35814D01*
G01X1516489Y-275381D01*
G03X1552303Y-311195I35814J0D01*
G01X1632951Y-311195D01*
G03X1667963Y-282915I0J35814D01*
G03X1702976Y-311195I35013J7534D01*
G01X1783624Y-311195D01*
G03X1819438Y-275381I0J35814D01*
G01X1819438Y-188981D01*
G03X1783624Y-153167I-35814J0D01*
G01X1702976Y-153167D01*
G03X1667963Y-181447I0J-35814D01*
G03X1632951Y-153167I-35013J-7534D01*
G01X2101499Y-1759545D02*
G01X2154700Y-1759545D01*
G03X2190514Y-1723731I0J35814D01*
G01X2190514Y-1616531D01*
G03X2154700Y-1580717I-35814J0D01*
G01X2101499Y-1580717D01*
G03X2080602Y-1587446I0J-35814D01*
G03X2059704Y-1580717I-20898J-29085D01*
G01X2006503Y-1580717D01*
G03X1985606Y-1587446I0J-35814D01*
G03X1964708Y-1580717I-20898J-29085D01*
G01X1911507Y-1580717D01*
G03X1875693Y-1616531I0J-35814D01*
G01X1875693Y-1723731D01*
G03X1911507Y-1759545I35814J0D01*
G01X1964708Y-1759545D01*
G03X1985606Y-1752816I0J35814D01*
G03X2006503Y-1759545I20898J29085D01*
G01X2059704Y-1759545D01*
G03X2080602Y-1752816I0J35814D01*
G03X2101499Y-1759545I20898J29085D01*
G01X2006503Y-1529726D02*
G01X2059704Y-1529726D01*
G03X2080602Y-1522997I0J35814D01*
G03X2101499Y-1529726I20898J29085D01*
G01X2154700Y-1529726D01*
G03X2190514Y-1493912I0J35814D01*
G01X2190514Y-1386711D01*
G03X2154700Y-1350897I-35814J0D01*
G01X2101499Y-1350897D01*
G03X2080602Y-1357627I0J-35814D01*
G03X2059704Y-1350897I-20898J-29085D01*
G01X2006503Y-1350897D01*
G03X1985606Y-1357627I0J-35814D01*
G03X1964708Y-1350897I-20898J-29085D01*
G01X1911507Y-1350897D01*
G03X1875693Y-1386711I0J-35814D01*
G01X1875693Y-1493912D01*
G03X1911507Y-1529726I35814J0D01*
G01X1964708Y-1529726D01*
G03X1985606Y-1522997I0J35814D01*
G03X2006503Y-1529726I20898J29085D01*
G01X2075586Y-153167D02*
G01X1994939Y-153167D01*
G03X1959125Y-188981I0J-35814D01*
G01X1959125Y-275381D01*
G03X1994939Y-311195I35814J0D01*
G01X2075586Y-311195D01*
G03X2110599Y-282915I0J35814D01*
G03X2145612Y-311195I35013J7534D01*
G01X2226259Y-311195D01*
G03X2262073Y-275381I0J35814D01*
G01X2262073Y-188981D01*
G03X2226259Y-153167I-35814J0D01*
G01X2145612Y-153167D01*
G03X2110599Y-181447I0J-35814D01*
G03X2075586Y-153167I-35013J-7534D01*
G01X2303723Y-1862117D02*
G03X2339537Y-1897931I35814J0D01*
G01X2639536Y-1897931D01*
G03X2675350Y-1862117I0J35814D01*
G01X2675350Y-1312118D01*
G03X2639536Y-1276304I-35814J0D01*
G01X2339537Y-1276304D01*
G03X2303723Y-1312118I0J-35814D01*
G01X2303723Y-1862117D01*
G01X2660570Y-909557D02*
G03X2624756Y-873743I-35814J0D01*
G01X2424756Y-873743D01*
G03X2388942Y-909557I0J-35814D01*
G01X2388942Y-1068858D01*
G03X2424756Y-1104672I35814J0D01*
G01X2624756Y-1104672D01*
G03X2660570Y-1068858I0J35814D01*
G01X2660570Y-909557D01*
G01X2595508Y-124903D02*
G01X2454507Y-124903D01*
G03X2418693Y-160717I0J-35814D01*
G01X2418693Y-295718D01*
G03X2454507Y-331532I35814J0D01*
G01X2595508Y-331532D01*
G03X2625007Y-316026I0J35814D01*
G03X2654507Y-331532I29500J20308D01*
G01X2795507Y-331532D01*
G03X2831321Y-295718I0J35814D01*
G01X2831321Y-160717D01*
G03X2795507Y-124903I-35814J0D01*
G01X2654507Y-124903D01*
G03X2625007Y-140409I0J-35814D01*
G03X2595508Y-124903I-29500J-20308D01*
G01X2595508Y-504893D02*
G01X2454507Y-504893D01*
G03X2418693Y-540707I0J-35814D01*
G01X2418693Y-675708D01*
G03X2454507Y-711522I35814J0D01*
G01X2595508Y-711522D01*
G03X2625007Y-696016I0J35814D01*
G03X2654507Y-711522I29500J20308D01*
G01X2795507Y-711522D01*
G03X2831321Y-675708I0J35814D01*
G01X2831321Y-540707D01*
G03X2795507Y-504893I-35814J0D01*
G01X2654507Y-504893D01*
G03X2625007Y-520399I0J-35814D01*
G03X2595508Y-504893I-29500J-20308D01*
G01X3080584Y-909557D02*
G03X3044770Y-873743I-35814J0D01*
G01X2844771Y-873743D01*
G03X2808957Y-909557I0J-35814D01*
G01X2808957Y-1068858D01*
G03X2844771Y-1104672I35814J0D01*
G01X3044770Y-1104672D01*
G03X3080584Y-1068858I0J35814D01*
G01X3080584Y-909557D01*
G54D11*
G01X2725007Y-228217D02*
G01X2821161Y-228217D01*
G01X2725007Y-228217D02*
G01X2725007Y-135063D01*
G01X2725007Y-228217D02*
G01X2725007Y-321372D01*
G01X2725007Y-608208D02*
G01X2821161Y-608208D01*
G01X2725007Y-608208D02*
G01X2725007Y-515053D01*
G01X2725007Y-608208D02*
G01X2725007Y-701362D01*
G01X2033104Y-1440312D02*
G01X2033104Y-1519566D01*
G01X2033104Y-1440312D02*
G01X2033104Y-1361057D01*
G01X1688280Y-1660342D02*
G01X1784434Y-1660342D01*
G01X1688280Y-1660342D02*
G01X1688280Y-1567187D01*
G01X1688280Y-1660342D02*
G01X1688280Y-1753496D01*
G01X1592627Y-232181D02*
G01X1526649Y-232181D01*
G01X1592627Y-232181D02*
G01X1592627Y-163327D01*
G01X1592627Y-232181D02*
G01X1592627Y-301035D01*
G01X1435100Y-838200D02*
G01X1333246Y-838200D01*
G01X1435100Y-838200D02*
G01X1536954Y-838200D01*
G01X1435100Y-838200D02*
G01X1435100Y-736346D01*
G01X1435100Y-838200D02*
G01X1435100Y-940054D01*
G04 Copper End*

G04 Pad Start*
G54D12*
G01X1435100Y-838200D03*
G01X1435100Y-546100D03*
G01X1435100Y-1117600D03*
G54D13*
G01X2725007Y-608208D03*
G01X2525008Y-608208D03*
G01X2725007Y-228217D03*
G01X2525008Y-228217D03*
G01X1688280Y-1660342D03*
G01X1488280Y-1660342D03*
G54D14*
G01X2944771Y-989208D03*
G01X2524756Y-989208D03*
G54D15*
G01X1743300Y-232181D03*
G01X1592627Y-232181D03*
G01X2185935Y-232181D03*
G01X2035263Y-232181D03*
G54D16*
G01X2128100Y-1440312D03*
G01X2033104Y-1440312D03*
G01X1938108Y-1440312D03*
G01X1938108Y-1670131D03*
G01X2033104Y-1670131D03*
G01X2128100Y-1670131D03*
G54D18*
G01X2954585Y-1587117D03*
G01X2489537Y-1587117D03*
G04 Pad End*

G04 Via Start*
G54D19*
G01X1488280Y-1660342D03*
G01X2477238Y-1587123D03*
G54D20*
G01X2033104Y-1670131D03*
G01X1938108Y-1670131D03*
G01X1938108Y-1440312D03*
G01X2128100Y-1440312D03*
G54D19*
G01X2954585Y-1587117D03*
G01X2950077Y-1012975D03*
G01X2529388Y-989208D03*
G01X2525008Y-608208D03*
G01X2525008Y-228217D03*
G01X2031098Y-232180D03*
G01X2190101Y-232181D03*
G01X1743300Y-232181D03*
G04 Via End*

M02*

