G04 Layer: TopSilkscreenLayer*
G04 EasyEDA Pro v3.2.149, 2026-09-29 10:16:42*
G04 Gerber Generator version 0.3*
G04 Scale: 100 percent, Rotated: No, Reflected: No*
G04 Dimensions in millimeters*
G04 Leading zeros omitted, absolute positions, 4 integers and 5 decimals*
G04 Generated by one-click*
G04 Object Configs: Pad,Via,Track,Text,Image,Dimension,BoardOutline,BoardCutout,CopperFilled,SolidRegion,FPCStiffener,Line,PlaneZone,ComponentProperty,ComponentSilkscreen,TearDrop*
G04 Layer Configs: 1,2,3,4,5,6,7,8,9,10,11,13,14,56*
G04 Copper Areas: 0*
%FSLAX45Y45*%
%MOMM*%
%ADD10C,0.1524*%
%ADD11C,0.3*%
%ADD12C,0.8122*%
G75*


G04 Text Start*
G54D10*
G01X1338955Y-356367D02*
G01X1363847Y-421391D01*
G01X1388485Y-356367D02*
G01X1363847Y-421391D01*
G01X1433951Y-377957D02*
G01X1427855Y-381005D01*
G01X1421759Y-387355D01*
G01X1418711Y-396499D01*
G01X1418711Y-402849D01*
G01X1421759Y-411993D01*
G01X1427855Y-418343D01*
G01X1433951Y-421391D01*
G01X1443349Y-421391D01*
G01X1449445Y-418343D01*
G01X1455795Y-411993D01*
G01X1458843Y-402849D01*
G01X1458843Y-396499D01*
G01X1455795Y-387355D01*
G01X1449445Y-381005D01*
G01X1443349Y-377957D01*
G01X1433951Y-377957D01*
G01X1489069Y-377957D02*
G01X1489069Y-408945D01*
G01X1492117Y-418343D01*
G01X1498213Y-421391D01*
G01X1507611Y-421391D01*
G01X1513707Y-418343D01*
G01X1523105Y-408945D01*
G01X1523105Y-377957D02*
G01X1523105Y-421391D01*
G01X1562475Y-356367D02*
G01X1562475Y-408945D01*
G01X1565523Y-418343D01*
G01X1571873Y-421391D01*
G01X1577969Y-421391D01*
G01X1553331Y-377957D02*
G01X1574921Y-377957D01*
G01X1387602Y-670560D02*
G01X1384554Y-664210D01*
G01X1378204Y-658114D01*
G01X1372108Y-655066D01*
G01X1359662Y-655066D01*
G01X1353566Y-658114D01*
G01X1347216Y-664210D01*
G01X1344168Y-670560D01*
G01X1341120Y-679704D01*
G01X1341120Y-695198D01*
G01X1344168Y-704596D01*
G01X1347216Y-710692D01*
G01X1353566Y-717042D01*
G01X1359662Y-720090D01*
G01X1372108Y-720090D01*
G01X1378204Y-717042D01*
G01X1384554Y-710692D01*
G01X1387602Y-704596D01*
G01X1387602Y-695198D01*
G01X1372108Y-695198D02*
G01X1387602Y-695198D01*
G01X1417828Y-655066D02*
G01X1417828Y-720090D01*
G01X1417828Y-655066D02*
G01X1461008Y-720090D01*
G01X1461008Y-655066D02*
G01X1461008Y-720090D01*
G01X1491234Y-655066D02*
G01X1491234Y-720090D01*
G01X1491234Y-655066D02*
G01X1512824Y-655066D01*
G01X1521968Y-658114D01*
G01X1528318Y-664210D01*
G01X1531366Y-670560D01*
G01X1534414Y-679704D01*
G01X1534414Y-695198D01*
G01X1531366Y-704596D01*
G01X1528318Y-710692D01*
G01X1521968Y-717042D01*
G01X1512824Y-720090D01*
G01X1491234Y-720090D01*
G01X1341120Y-947166D02*
G01X1366012Y-1012190D01*
G01X1390650Y-947166D02*
G01X1366012Y-1012190D01*
G01X1420876Y-947166D02*
G01X1423924Y-950214D01*
G01X1426972Y-947166D01*
G01X1423924Y-944118D01*
G01X1420876Y-947166D01*
G01X1423924Y-968756D02*
G01X1423924Y-1012190D01*
G01X1457198Y-968756D02*
G01X1457198Y-1012190D01*
G01X1457198Y-981202D02*
G01X1466342Y-971804D01*
G01X1472438Y-968756D01*
G01X1481836Y-968756D01*
G01X1487932Y-971804D01*
G01X1491234Y-981202D01*
G01X1491234Y-1012190D01*
G01X2475130Y-418787D02*
G01X2472082Y-412437D01*
G01X2465732Y-406341D01*
G01X2459636Y-403293D01*
G01X2447190Y-403293D01*
G01X2441094Y-406341D01*
G01X2434744Y-412437D01*
G01X2431696Y-418787D01*
G01X2428648Y-427931D01*
G01X2428648Y-443425D01*
G01X2431696Y-452823D01*
G01X2434744Y-458919D01*
G01X2441094Y-465269D01*
G01X2447190Y-468317D01*
G01X2459636Y-468317D01*
G01X2465732Y-465269D01*
G01X2472082Y-458919D01*
G01X2475130Y-452823D01*
G01X2505356Y-415739D02*
G01X2511452Y-412437D01*
G01X2520596Y-403293D01*
G01X2520596Y-468317D01*
G01X2475130Y-38797D02*
G01X2472082Y-32447D01*
G01X2465732Y-26351D01*
G01X2459636Y-23303D01*
G01X2447190Y-23303D01*
G01X2441094Y-26351D01*
G01X2434744Y-32447D01*
G01X2431696Y-38797D01*
G01X2428648Y-47941D01*
G01X2428648Y-63435D01*
G01X2431696Y-72833D01*
G01X2434744Y-78929D01*
G01X2441094Y-85279D01*
G01X2447190Y-88327D01*
G01X2459636Y-88327D01*
G01X2465732Y-85279D01*
G01X2472082Y-78929D01*
G01X2475130Y-72833D01*
G01X2508404Y-38797D02*
G01X2508404Y-35749D01*
G01X2511452Y-29399D01*
G01X2514500Y-26351D01*
G01X2520596Y-23303D01*
G01X2533042Y-23303D01*
G01X2539392Y-26351D01*
G01X2542440Y-29399D01*
G01X2545488Y-35749D01*
G01X2545488Y-41845D01*
G01X2542440Y-47941D01*
G01X2536090Y-57339D01*
G01X2505356Y-88327D01*
G01X2548536Y-88327D01*
G01X1438402Y-1470921D02*
G01X1435354Y-1464571D01*
G01X1429004Y-1458475D01*
G01X1422908Y-1455427D01*
G01X1410462Y-1455427D01*
G01X1404366Y-1458475D01*
G01X1398016Y-1464571D01*
G01X1394968Y-1470921D01*
G01X1391920Y-1480065D01*
G01X1391920Y-1495559D01*
G01X1394968Y-1504957D01*
G01X1398016Y-1511053D01*
G01X1404366Y-1517403D01*
G01X1410462Y-1520451D01*
G01X1422908Y-1520451D01*
G01X1429004Y-1517403D01*
G01X1435354Y-1511053D01*
G01X1438402Y-1504957D01*
G01X1474724Y-1455427D02*
G01X1508760Y-1455427D01*
G01X1490218Y-1480065D01*
G01X1499362Y-1480065D01*
G01X1505712Y-1483113D01*
G01X1508760Y-1486415D01*
G01X1511808Y-1495559D01*
G01X1511808Y-1501909D01*
G01X1508760Y-1511053D01*
G01X1502664Y-1517403D01*
G01X1493266Y-1520451D01*
G01X1483868Y-1520451D01*
G01X1474724Y-1517403D01*
G01X1471676Y-1514101D01*
G01X1468628Y-1508005D01*
G01X2431409Y-734281D02*
G01X2431409Y-799305D01*
G01X2431409Y-734281D02*
G01X2452999Y-734281D01*
G01X2462397Y-737329D01*
G01X2468493Y-743425D01*
G01X2471541Y-749775D01*
G01X2474843Y-758919D01*
G01X2474843Y-774413D01*
G01X2471541Y-783811D01*
G01X2468493Y-789907D01*
G01X2462397Y-796257D01*
G01X2452999Y-799305D01*
G01X2431409Y-799305D01*
G01X2505069Y-746727D02*
G01X2511165Y-743425D01*
G01X2520309Y-734281D01*
G01X2520309Y-799305D01*
G01X1529455Y-51567D02*
G01X1529455Y-116591D01*
G01X1529455Y-51567D02*
G01X1557395Y-51567D01*
G01X1566539Y-54615D01*
G01X1569587Y-57663D01*
G01X1572889Y-64013D01*
G01X1572889Y-70109D01*
G01X1569587Y-76205D01*
G01X1566539Y-79253D01*
G01X1557395Y-82555D01*
G01X1529455Y-82555D01*
G01X1551045Y-82555D02*
G01X1572889Y-116591D01*
G01X1603115Y-64013D02*
G01X1609211Y-60711D01*
G01X1618355Y-51567D01*
G01X1618355Y-116591D01*
G01X1972090Y-51567D02*
G01X1972090Y-116591D01*
G01X1972090Y-51567D02*
G01X2000030Y-51567D01*
G01X2009174Y-54615D01*
G01X2012222Y-57663D01*
G01X2015524Y-64013D01*
G01X2015524Y-70109D01*
G01X2012222Y-76205D01*
G01X2009174Y-79253D01*
G01X2000030Y-82555D01*
G01X1972090Y-82555D01*
G01X1993680Y-82555D02*
G01X2015524Y-116591D01*
G01X2051846Y-51567D02*
G01X2085882Y-51567D01*
G01X2067340Y-76205D01*
G01X2076484Y-76205D01*
G01X2082834Y-79253D01*
G01X2085882Y-82555D01*
G01X2088930Y-91699D01*
G01X2088930Y-98049D01*
G01X2085882Y-107193D01*
G01X2079786Y-113543D01*
G01X2070388Y-116591D01*
G01X2060990Y-116591D01*
G01X2051846Y-113543D01*
G01X2048798Y-110241D01*
G01X2045750Y-104145D01*
G01X1798320Y-1264666D02*
G01X1798320Y-1311148D01*
G01X1801368Y-1320292D01*
G01X1807718Y-1326642D01*
G01X1816862Y-1329690D01*
G01X1823212Y-1329690D01*
G01X1832356Y-1326642D01*
G01X1838452Y-1320292D01*
G01X1841754Y-1311148D01*
G01X1841754Y-1264666D01*
G01X1871980Y-1277112D02*
G01X1878076Y-1273810D01*
G01X1887220Y-1264666D01*
G01X1887220Y-1329690D01*
G01X2347157Y-1180466D02*
G01X2347157Y-1226948D01*
G01X2350205Y-1236092D01*
G01X2356555Y-1242442D01*
G01X2365699Y-1245490D01*
G01X2372049Y-1245490D01*
G01X2381193Y-1242442D01*
G01X2387289Y-1236092D01*
G01X2390591Y-1226948D01*
G01X2390591Y-1180466D01*
G01X2423865Y-1195960D02*
G01X2423865Y-1192912D01*
G01X2426913Y-1186562D01*
G01X2429961Y-1183514D01*
G01X2436057Y-1180466D01*
G01X2448503Y-1180466D01*
G01X2454853Y-1183514D01*
G01X2457901Y-1186562D01*
G01X2460949Y-1192912D01*
G01X2460949Y-1199008D01*
G01X2457901Y-1205104D01*
G01X2451551Y-1214502D01*
G01X2420817Y-1245490D01*
G01X2463997Y-1245490D01*
G04 Text End*

G04 PolygonModel Start*
G01X2806127Y-517847D02*
G01X2665127Y-517847D01*
G01X2665127Y-698568D02*
G01X2806127Y-698568D01*
G01X2821367Y-683328D02*
G01X2821367Y-533087D01*
G01X2443888Y-517847D02*
G01X2584888Y-517847D01*
G01X2584888Y-698568D02*
G01X2443888Y-698568D01*
G01X2428648Y-683328D02*
G01X2428648Y-533087D01*
G01X2806127Y-698568D02*
G03X2821367Y-683328I0J15240D01*
G01X2821367Y-533087D02*
G03X2806127Y-517847I-15240J0D01*
G01X2443888Y-698568D02*
G02X2428648Y-683328I0J15240D01*
G01X2428648Y-533087D02*
G02X2443888Y-517847I15240J0D01*
G01X2806127Y-137857D02*
G01X2665127Y-137857D01*
G01X2665127Y-318578D02*
G01X2806127Y-318578D01*
G01X2821367Y-303338D02*
G01X2821367Y-153097D01*
G01X2443888Y-137857D02*
G01X2584888Y-137857D01*
G01X2584888Y-318578D02*
G01X2443888Y-318578D01*
G01X2428648Y-303338D02*
G01X2428648Y-153097D01*
G01X2806127Y-318578D02*
G03X2821367Y-303338I0J15240D01*
G01X2821367Y-153097D02*
G03X2806127Y-137857I-15240J0D01*
G01X2443888Y-318578D02*
G02X2428648Y-303338I0J15240D01*
G01X2428648Y-153097D02*
G02X2443888Y-137857I15240J0D01*
G01X1769400Y-1569981D02*
G01X1628399Y-1569981D01*
G01X1628399Y-1750702D02*
G01X1769400Y-1750702D01*
G01X1784640Y-1735462D02*
G01X1784640Y-1585221D01*
G01X1407160Y-1569981D02*
G01X1548160Y-1569981D01*
G01X1548160Y-1750702D02*
G01X1407160Y-1750702D01*
G01X1391920Y-1735462D02*
G01X1391920Y-1585221D01*
G01X1769400Y-1750702D02*
G03X1784640Y-1735462I0J15240D01*
G01X1784640Y-1585221D02*
G03X1769400Y-1569981I-15240J0D01*
G01X1407160Y-1750702D02*
G02X1391920Y-1735462I0J15240D01*
G01X1391920Y-1585221D02*
G02X1407160Y-1569981I15240J0D01*
G01X2646125Y-849086D02*
G01X2646125Y-1129329D01*
G01X2462140Y-849086D02*
G01X3007387Y-849086D01*
G01X2462140Y-1129329D02*
G01X3007387Y-1129329D01*
G01X3007387Y-849086D02*
G01X3007387Y-889239D01*
G01X3007387Y-1129329D02*
G01X3007387Y-1089177D01*
G36*
G01X2469763Y-841469D02*
G01X2469763Y-894319D01*
G01X2424043Y-894319D01*
G01X2424043Y-841469D01*
G01X2469763Y-841469D01*
G37*
G36*
G01X2469763Y-1136947D02*
G01X2424043Y-1136947D01*
G01X2424043Y-1084097D01*
G01X2469763Y-1084097D01*
G01X2469763Y-1136947D01*
G37*
G01X1710585Y-298241D02*
G01X1806472Y-298241D01*
G01X1806472Y-298241D02*
G01X1806472Y-166121D01*
G01X1806472Y-166121D02*
G01X1710585Y-166121D01*
G01X1625342Y-298241D02*
G01X1529455Y-298241D01*
G01X1529455Y-298241D02*
G01X1529455Y-166121D01*
G01X1529455Y-166121D02*
G01X1625342Y-166121D01*
G01X2153220Y-298241D02*
G01X2249108Y-298241D01*
G01X2249108Y-298241D02*
G01X2249108Y-166121D01*
G01X2249108Y-166121D02*
G01X2153220Y-166121D01*
G01X2067978Y-298241D02*
G01X1972090Y-298241D01*
G01X1972090Y-298241D02*
G01X1972090Y-166121D01*
G01X1972090Y-166121D02*
G01X2067978Y-166121D01*
G01X1879185Y-1466301D02*
G01X1879185Y-1644142D01*
G01X2187023Y-1466301D02*
G01X2187023Y-1644142D01*
G01X2407091Y-1295020D02*
G01X3022279Y-1295020D01*
G01X2407088Y-1879217D02*
G01X3022276Y-1879217D01*

G04 Circle Start*
G54D11*
G01X2184919Y-1425072D02*
G03X2214942Y-1425072I15011J0D01*
G03X2184919Y-1425072I-15011J0D01*
G04 Circle End*

M02*

