G04 Layer: BottomLayer*
G04 EasyEDA Pro v3.2.149, 2026-09-29 10:39:25*
G04 Gerber Generator version 0.3*
G04 Scale: 100 percent, Rotated: No, Reflected: No*
G04 Dimensions in millimeters*
G04 Leading zeros omitted, absolute positions, 4 integers and 5 decimals*
G04 Generated by one-click*
G04 Object Configs: Pad,Via,Track,Text,Image,Dimension,BoardOutline,BoardCutout,CopperFilled,SolidRegion,FPCStiffener,Line,PlaneZone,ComponentProperty,ComponentSilkscreen,TearDrop*
G04 Layer Configs: 1,2,3,4,5,6,7,8,9,10,11,13,14,56*
G04 Copper Areas: 0*
%FSLAX45Y45*%
%MOMM*%
%ADD10C,1.524*%
%ADD11C,0.61*%
%ADD12C,0.5*%
%ADD13C,0.5424*%
G75*


G04 Pad Start*
G54D10*
G01X1435100Y-838200D03*
G01X1435100Y-546100D03*
G01X1435100Y-1117600D03*
G04 Pad End*

G04 Via Start*
G54D11*
G01X1488280Y-1660342D03*
G01X2477238Y-1587123D03*
G54D12*
G01X2033104Y-1670131D03*
G01X1938108Y-1670131D03*
G01X1938108Y-1440312D03*
G01X2128100Y-1440312D03*
G54D11*
G01X2954585Y-1587117D03*
G01X2950077Y-1012975D03*
G01X2529388Y-989208D03*
G01X2525008Y-608208D03*
G01X2525008Y-228217D03*
G01X2031098Y-232180D03*
G01X2190101Y-232181D03*
G01X1743300Y-232181D03*
G04 Via End*

G04 Track Start*
G54D12*
G01X1435100Y-1117600D02*
G01X1488280Y-1170780D01*
G01X1488280Y-1660342D01*
G01X1928318Y-1660342D01*
G01X1938108Y-1670131D01*
G01X2033104Y-1670131D02*
G01X1938108Y-1670131D01*
G01X1938108Y-1440312D02*
G01X2031098Y-1347321D01*
G01X1743300Y-232181D02*
G01X2031097Y-232181D01*
G01X2031098Y-1347321D02*
G01X2031098Y-232181D01*
G01X2525008Y-228217D02*
G01X2194065Y-228217D01*
G01X2190101Y-232181D01*
G01X2525008Y-608208D02*
G01X2525008Y-228217D01*
G01X2529388Y-989208D02*
G01X2529388Y-612588D01*
G01X2525008Y-608208D01*
G01X2950077Y-1582609D02*
G01X2950077Y-1012975D01*
G01X2128100Y-1440312D02*
G01X2807780Y-1440312D01*
G01X2950077Y-1582609D01*
G01X2033104Y-1670131D02*
G01X2394230Y-1670131D01*
G01X2477238Y-1587123D01*
G01X1672600Y-202896D02*
G01X1714015Y-161481D01*
G01X1435100Y-546100D02*
G01X1672600Y-308600D01*
G01X1672600Y-202896D01*
G01X1714015Y-161481D02*
G01X2119401Y-161481D01*
G01X2190101Y-232181D01*
G04 Track End*

M02*

